<?xml version="1.0" encoding="UTF-8" standalone="no"?>
<!DOCTYPE svg PUBLIC "-//W3C//DTD SVG 1.1//EN"
 "http://www.w3.org/Graphics/SVG/1.1/DTD/svg11.dtd">
<!-- Generated by graphviz version 7.1.0 (0)
 -->
<!-- Pages: 1 -->
<svg width="2450pt" height="960pt"
 viewBox="0.00 0.00 2450.40 960.18" xmlns="http://www.w3.org/2000/svg" xmlns:xlink="http://www.w3.org/1999/xlink">
<g id="graph0" class="graph" transform="scale(1 1) rotate(0) translate(4 956.18)">
<polygon fill="white" stroke="none" points="-4,4 -4,-956.18 2446.4,-956.18 2446.4,4 -4,4"/>
<!-- node0x556a21c09fe0 -->
<g id="node1" class="node">
<title>node0x556a21c09fe0</title>
<ellipse fill="none" stroke="black" cx="786.77" cy="-934.18" rx="76.09" ry="18"/>
<text text-anchor="middle" x="786.77" y="-930.48" font-family="Times,serif" font-size="14.00">GLOBAL_LIST</text>
</g>
<!-- node0x556a21c09f40 -->
<g id="node2" class="node">
<title>node0x556a21c09f40</title>
<ellipse fill="none" stroke="black" cx="786.77" cy="-862.18" rx="63.89" ry="18"/>
<text text-anchor="middle" x="786.77" y="-858.48" font-family="Times,serif" font-size="14.00">FUNCTION</text>
</g>
<!-- node0x556a21c09fe0&#45;&#45;node0x556a21c09f40 -->
<g id="edge1" class="edge">
<title>node0x556a21c09fe0&#45;&#45;node0x556a21c09f40</title>
<path fill="none" stroke="black" d="M786.77,-915.88C786.77,-905.03 786.77,-891.1 786.77,-880.29"/>
</g>
<!-- node0x556a21c09350 -->
<g id="node3" class="node">
<title>node0x556a21c09350</title>
<ellipse fill="none" stroke="black" cx="564.77" cy="-781.31" rx="106.55" ry="26.74"/>
<text text-anchor="middle" x="564.77" y="-785.11" font-family="Times,serif" font-size="14.00">IDENTIFIER_DATA</text>
<text text-anchor="middle" x="564.77" y="-770.11" font-family="Times,serif" font-size="14.00">main</text>
</g>
<!-- node0x556a21c09f40&#45;&#45;node0x556a21c09350 -->
<g id="edge2" class="edge">
<title>node0x556a21c09f40&#45;&#45;node0x556a21c09350</title>
<path fill="none" stroke="black" d="M748.1,-847.44C714.19,-835.39 664.32,-817.68 625.15,-803.76"/>
</g>
<!-- node0x556a21c09410 -->
<g id="node4" class="node">
<title>node0x556a21c09410</title>
<ellipse fill="none" stroke="black" cx="786.77" cy="-781.31" rx="96.68" ry="18"/>
<text text-anchor="middle" x="786.77" y="-777.61" font-family="Times,serif" font-size="14.00">PARAMETER_LIST</text>
</g>
<!-- node0x556a21c09f40&#45;&#45;node0x556a21c09410 -->
<g id="edge3" class="edge">
<title>node0x556a21c09f40&#45;&#45;node0x556a21c09410</title>
<path fill="none" stroke="black" d="M786.77,-844.07C786.77,-830.93 786.77,-812.86 786.77,-799.66"/>
</g>
<!-- node0x556a21c09ea0 -->
<g id="node7" class="node">
<title>node0x556a21c09ea0</title>
<ellipse fill="none" stroke="black" cx="976.77" cy="-781.31" rx="44.39" ry="18"/>
<text text-anchor="middle" x="976.77" y="-777.61" font-family="Times,serif" font-size="14.00">BLOCK</text>
</g>
<!-- node0x556a21c09f40&#45;&#45;node0x556a21c09ea0 -->
<g id="edge6" class="edge">
<title>node0x556a21c09f40&#45;&#45;node0x556a21c09ea0</title>
<path fill="none" stroke="black" d="M821.62,-846.71C857.4,-831.86 912.53,-808.98 946.53,-794.87"/>
</g>
<!-- node0x556a21c093c0 -->
<g id="node5" class="node">
<title>node0x556a21c093c0</title>
<ellipse fill="none" stroke="black" cx="554.77" cy="-691.57" rx="106.55" ry="26.74"/>
<text text-anchor="middle" x="554.77" y="-695.37" font-family="Times,serif" font-size="14.00">IDENTIFIER_DATA</text>
<text text-anchor="middle" x="554.77" y="-680.37" font-family="Times,serif" font-size="14.00">a</text>
</g>
<!-- node0x556a21c09410&#45;&#45;node0x556a21c093c0 -->
<g id="edge4" class="edge">
<title>node0x556a21c09410&#45;&#45;node0x556a21c093c0</title>
<path fill="none" stroke="black" d="M745.3,-764.62C708.28,-750.63 653.71,-729.99 612.45,-714.38"/>
</g>
<!-- node0x556a21c09480 -->
<g id="node6" class="node">
<title>node0x556a21c09480</title>
<ellipse fill="none" stroke="black" cx="786.77" cy="-691.57" rx="106.55" ry="26.74"/>
<text text-anchor="middle" x="786.77" y="-695.37" font-family="Times,serif" font-size="14.00">IDENTIFIER_DATA</text>
<text text-anchor="middle" x="786.77" y="-680.37" font-family="Times,serif" font-size="14.00">b</text>
</g>
<!-- node0x556a21c09410&#45;&#45;node0x556a21c09480 -->
<g id="edge5" class="edge">
<title>node0x556a21c09410&#45;&#45;node0x556a21c09480</title>
<path fill="none" stroke="black" d="M786.77,-762.98C786.77,-750.29 786.77,-732.86 786.77,-718.52"/>
</g>
<!-- node0x556a21c09c50 -->
<g id="node8" class="node">
<title>node0x556a21c09c50</title>
<ellipse fill="none" stroke="black" cx="1008.77" cy="-691.57" rx="96.68" ry="18"/>
<text text-anchor="middle" x="1008.77" y="-687.87" font-family="Times,serif" font-size="14.00">STATEMENT_LIST</text>
</g>
<!-- node0x556a21c09ea0&#45;&#45;node0x556a21c09c50 -->
<g id="edge7" class="edge">
<title>node0x556a21c09ea0&#45;&#45;node0x556a21c09c50</title>
<path fill="none" stroke="black" d="M982.94,-763.39C988.57,-747.96 996.85,-725.25 1002.51,-709.74"/>
</g>
<!-- node0x556a21c046d0 -->
<g id="node9" class="node">
<title>node0x556a21c046d0</title>
<ellipse fill="none" stroke="black" cx="917.77" cy="-610.7" rx="44.39" ry="18"/>
<text text-anchor="middle" x="917.77" y="-607" font-family="Times,serif" font-size="14.00">BLOCK</text>
</g>
<!-- node0x556a21c09c50&#45;&#45;node0x556a21c046d0 -->
<g id="edge8" class="edge">
<title>node0x556a21c09c50&#45;&#45;node0x556a21c046d0</title>
<path fill="none" stroke="black" d="M989.03,-673.46C973.24,-659.77 951.29,-640.75 935.93,-627.44"/>
</g>
<!-- node0x556a21c09d60 -->
<g id="node37" class="node">
<title>node0x556a21c09d60</title>
<ellipse fill="none" stroke="black" cx="1100.77" cy="-610.7" rx="105.08" ry="18"/>
<text text-anchor="middle" x="1100.77" y="-607" font-family="Times,serif" font-size="14.00">PRINT_STATEMENT</text>
</g>
<!-- node0x556a21c09c50&#45;&#45;node0x556a21c09d60 -->
<g id="edge36" class="edge">
<title>node0x556a21c09c50&#45;&#45;node0x556a21c09d60</title>
<path fill="none" stroke="black" d="M1028.28,-673.84C1043.79,-660.55 1065.39,-642.03 1080.97,-628.67"/>
</g>
<!-- node0x556a21c097d0 -->
<g id="node10" class="node">
<title>node0x556a21c097d0</title>
<ellipse fill="none" stroke="black" cx="609.77" cy="-529.83" rx="106.68" ry="18"/>
<text text-anchor="middle" x="609.77" y="-526.13" font-family="Times,serif" font-size="14.00">DECLARATION_LIST</text>
</g>
<!-- node0x556a21c046d0&#45;&#45;node0x556a21c097d0 -->
<g id="edge9" class="edge">
<title>node0x556a21c046d0&#45;&#45;node0x556a21c097d0</title>
<path fill="none" stroke="black" d="M880.93,-600.27C827.84,-586.67 729.34,-561.45 666.81,-545.44"/>
</g>
<!-- node0x556a21c04680 -->
<g id="node14" class="node">
<title>node0x556a21c04680</title>
<ellipse fill="none" stroke="black" cx="917.77" cy="-529.83" rx="96.68" ry="18"/>
<text text-anchor="middle" x="917.77" y="-526.13" font-family="Times,serif" font-size="14.00">STATEMENT_LIST</text>
</g>
<!-- node0x556a21c046d0&#45;&#45;node0x556a21c04680 -->
<g id="edge13" class="edge">
<title>node0x556a21c046d0&#45;&#45;node0x556a21c04680</title>
<path fill="none" stroke="black" d="M917.77,-592.59C917.77,-579.45 917.77,-561.38 917.77,-548.18"/>
</g>
<!-- node0x556a21c09900 -->
<g id="node11" class="node">
<title>node0x556a21c09900</title>
<ellipse fill="none" stroke="black" cx="338.77" cy="-448.96" rx="81.49" ry="18"/>
<text text-anchor="middle" x="338.77" y="-445.26" font-family="Times,serif" font-size="14.00">DECLARATION</text>
</g>
<!-- node0x556a21c097d0&#45;&#45;node0x556a21c09900 -->
<g id="edge10" class="edge">
<title>node0x556a21c097d0&#45;&#45;node0x556a21c09900</title>
<path fill="none" stroke="black" d="M557.84,-513.72C508.35,-499.31 434.47,-477.81 386.44,-463.83"/>
</g>
<!-- node0x556a21c09590 -->
<g id="node12" class="node">
<title>node0x556a21c09590</title>
<ellipse fill="none" stroke="black" cx="106.77" cy="-368.09" rx="106.55" ry="26.74"/>
<text text-anchor="middle" x="106.77" y="-371.89" font-family="Times,serif" font-size="14.00">IDENTIFIER_DATA</text>
<text text-anchor="middle" x="106.77" y="-356.89" font-family="Times,serif" font-size="14.00">i</text>
</g>
<!-- node0x556a21c09900&#45;&#45;node0x556a21c09590 -->
<g id="edge11" class="edge">
<title>node0x556a21c09900&#45;&#45;node0x556a21c09590</title>
<path fill="none" stroke="black" d="M295.68,-433.31C260.04,-421.19 208.95,-403.83 168.89,-390.21"/>
</g>
<!-- node0x556a21c09a10 -->
<g id="node13" class="node">
<title>node0x556a21c09a10</title>
<ellipse fill="none" stroke="black" cx="338.77" cy="-368.09" rx="106.55" ry="26.74"/>
<text text-anchor="middle" x="338.77" y="-371.89" font-family="Times,serif" font-size="14.00">IDENTIFIER_DATA</text>
<text text-anchor="middle" x="338.77" y="-356.89" font-family="Times,serif" font-size="14.00">__FOR_END__</text>
</g>
<!-- node0x556a21c09900&#45;&#45;node0x556a21c09a10 -->
<g id="edge12" class="edge">
<title>node0x556a21c09900&#45;&#45;node0x556a21c09a10</title>
<path fill="none" stroke="black" d="M338.77,-430.85C338.77,-420.43 338.77,-406.91 338.77,-395.17"/>
</g>
<!-- node0x556a21c09650 -->
<g id="node15" class="node">
<title>node0x556a21c09650</title>
<ellipse fill="none" stroke="black" cx="767.77" cy="-448.96" rx="141.88" ry="18"/>
<text text-anchor="middle" x="767.77" y="-445.26" font-family="Times,serif" font-size="14.00">ASSIGNMENT_STATEMENT</text>
</g>
<!-- node0x556a21c04680&#45;&#45;node0x556a21c09650 -->
<g id="edge14" class="edge">
<title>node0x556a21c04680&#45;&#45;node0x556a21c09650</title>
<path fill="none" stroke="black" d="M886.69,-512.49C861.38,-499.18 825.76,-480.45 800.11,-466.96"/>
</g>
<!-- node0x556a21c094d0 -->
<g id="node18" class="node">
<title>node0x556a21c094d0</title>
<ellipse fill="none" stroke="black" cx="1068.77" cy="-448.96" rx="141.88" ry="18"/>
<text text-anchor="middle" x="1068.77" y="-445.26" font-family="Times,serif" font-size="14.00">ASSIGNMENT_STATEMENT</text>
</g>
<!-- node0x556a21c04680&#45;&#45;node0x556a21c094d0 -->
<g id="edge17" class="edge">
<title>node0x556a21c04680&#45;&#45;node0x556a21c094d0</title>
<path fill="none" stroke="black" d="M949.06,-512.49C974.54,-499.18 1010.4,-480.45 1036.22,-466.96"/>
</g>
<!-- node0x556a21c04630 -->
<g id="node23" class="node">
<title>node0x556a21c04630</title>
<ellipse fill="none" stroke="black" cx="1573.77" cy="-448.96" rx="108.58" ry="18"/>
<text text-anchor="middle" x="1573.77" y="-445.26" font-family="Times,serif" font-size="14.00">WHILE_STATEMENT</text>
</g>
<!-- node0x556a21c04680&#45;&#45;node0x556a21c04630 -->
<g id="edge22" class="edge">
<title>node0x556a21c04680&#45;&#45;node0x556a21c04630</title>
<path fill="none" stroke="black" d="M970.57,-514.37C987.46,-510.17 1006.31,-505.92 1023.77,-502.96 1178.77,-476.72 1360.7,-462.35 1471.58,-455.42"/>
</g>
<!-- node0x556a21c09710 -->
<g id="node16" class="node">
<title>node0x556a21c09710</title>
<ellipse fill="none" stroke="black" cx="570.77" cy="-368.09" rx="106.55" ry="26.74"/>
<text text-anchor="middle" x="570.77" y="-371.89" font-family="Times,serif" font-size="14.00">IDENTIFIER_DATA</text>
<text text-anchor="middle" x="570.77" y="-356.89" font-family="Times,serif" font-size="14.00">i</text>
</g>
<!-- node0x556a21c09650&#45;&#45;node0x556a21c09710 -->
<g id="edge15" class="edge">
<title>node0x556a21c09650&#45;&#45;node0x556a21c09710</title>
<path fill="none" stroke="black" d="M726.48,-431.43C697.37,-419.77 658.06,-404.04 626.22,-391.29"/>
</g>
<!-- node0x556a21c09600 -->
<g id="node17" class="node">
<title>node0x556a21c09600</title>
<ellipse fill="none" stroke="black" cx="802.77" cy="-368.09" rx="106.55" ry="26.74"/>
<text text-anchor="middle" x="802.77" y="-371.89" font-family="Times,serif" font-size="14.00">IDENTIFIER_DATA</text>
<text text-anchor="middle" x="802.77" y="-356.89" font-family="Times,serif" font-size="14.00">a</text>
</g>
<!-- node0x556a21c09650&#45;&#45;node0x556a21c09600 -->
<g id="edge16" class="edge">
<title>node0x556a21c09650&#45;&#45;node0x556a21c09600</title>
<path fill="none" stroke="black" d="M775.37,-430.85C780.03,-420.34 786.1,-406.67 791.33,-394.87"/>
</g>
<!-- node0x556a21c09520 -->
<g id="node19" class="node">
<title>node0x556a21c09520</title>
<ellipse fill="none" stroke="black" cx="1034.77" cy="-368.09" rx="106.55" ry="26.74"/>
<text text-anchor="middle" x="1034.77" y="-371.89" font-family="Times,serif" font-size="14.00">IDENTIFIER_DATA</text>
<text text-anchor="middle" x="1034.77" y="-356.89" font-family="Times,serif" font-size="14.00">__FOR_END__</text>
</g>
<!-- node0x556a21c094d0&#45;&#45;node0x556a21c09520 -->
<g id="edge18" class="edge">
<title>node0x556a21c094d0&#45;&#45;node0x556a21c09520</title>
<path fill="none" stroke="black" d="M1061.4,-430.85C1056.9,-420.43 1051.08,-406.91 1046.02,-395.17"/>
</g>
<!-- node0x556a21c09840 -->
<g id="node20" class="node">
<title>node0x556a21c09840</title>
<ellipse fill="none" stroke="black" cx="1240.77" cy="-368.09" rx="81.13" ry="26.74"/>
<text text-anchor="middle" x="1240.77" y="-371.89" font-family="Times,serif" font-size="14.00">EXPRESSION</text>
<text text-anchor="middle" x="1240.77" y="-356.89" font-family="Times,serif" font-size="14.00">+</text>
</g>
<!-- node0x556a21c094d0&#45;&#45;node0x556a21c09840 -->
<g id="edge19" class="edge">
<title>node0x556a21c094d0&#45;&#45;node0x556a21c09840</title>
<path fill="none" stroke="black" d="M1105.25,-431.23C1131.18,-419.34 1166.23,-403.27 1194.19,-390.45"/>
</g>
<!-- node0x556a21c096c0 -->
<g id="node21" class="node">
<title>node0x556a21c096c0</title>
<ellipse fill="none" stroke="black" cx="1023.77" cy="-278.35" rx="106.55" ry="26.74"/>
<text text-anchor="middle" x="1023.77" y="-282.15" font-family="Times,serif" font-size="14.00">IDENTIFIER_DATA</text>
<text text-anchor="middle" x="1023.77" y="-267.15" font-family="Times,serif" font-size="14.00">b</text>
</g>
<!-- node0x556a21c09840&#45;&#45;node0x556a21c096c0 -->
<g id="edge20" class="edge">
<title>node0x556a21c09840&#45;&#45;node0x556a21c096c0</title>
<path fill="none" stroke="black" d="M1190.44,-346.74C1157.01,-333.22 1113.13,-315.48 1078.78,-301.59"/>
</g>
<!-- node0x556a21c09780 -->
<g id="node22" class="node">
<title>node0x556a21c09780</title>
<ellipse fill="none" stroke="black" cx="1240.77" cy="-278.35" rx="92.76" ry="26.74"/>
<text text-anchor="middle" x="1240.77" y="-282.15" font-family="Times,serif" font-size="14.00">NUMBER_DATA</text>
<text text-anchor="middle" x="1240.77" y="-267.15" font-family="Times,serif" font-size="14.00">1</text>
</g>
<!-- node0x556a21c09840&#45;&#45;node0x556a21c09780 -->
<g id="edge21" class="edge">
<title>node0x556a21c09840&#45;&#45;node0x556a21c09780</title>
<path fill="none" stroke="black" d="M1240.77,-341.24C1240.77,-329.92 1240.77,-316.66 1240.77,-305.32"/>
</g>
<!-- node0x556a21c09ab0 -->
<g id="node24" class="node">
<title>node0x556a21c09ab0</title>
<ellipse fill="none" stroke="black" cx="1573.77" cy="-368.09" rx="65.52" ry="26.74"/>
<text text-anchor="middle" x="1573.77" y="-371.89" font-family="Times,serif" font-size="14.00">RELATION</text>
<text text-anchor="middle" x="1573.77" y="-356.89" font-family="Times,serif" font-size="14.00">&lt;</text>
</g>
<!-- node0x556a21c04630&#45;&#45;node0x556a21c09ab0 -->
<g id="edge23" class="edge">
<title>node0x556a21c04630&#45;&#45;node0x556a21c09ab0</title>
<path fill="none" stroke="black" d="M1573.77,-430.85C1573.77,-420.43 1573.77,-406.91 1573.77,-395.17"/>
</g>
<!-- node0x556a21c045e0 -->
<g id="node27" class="node">
<title>node0x556a21c045e0</title>
<ellipse fill="none" stroke="black" cx="1806.77" cy="-368.09" rx="44.39" ry="18"/>
<text text-anchor="middle" x="1806.77" y="-364.39" font-family="Times,serif" font-size="14.00">BLOCK</text>
</g>
<!-- node0x556a21c04630&#45;&#45;node0x556a21c045e0 -->
<g id="edge26" class="edge">
<title>node0x556a21c04630&#45;&#45;node0x556a21c045e0</title>
<path fill="none" stroke="black" d="M1620.09,-432.28C1665.34,-416.97 1733.12,-394.02 1773.35,-380.4"/>
</g>
<!-- node0x556a21c09ba0 -->
<g id="node25" class="node">
<title>node0x556a21c09ba0</title>
<ellipse fill="none" stroke="black" cx="1457.77" cy="-278.35" rx="106.55" ry="26.74"/>
<text text-anchor="middle" x="1457.77" y="-282.15" font-family="Times,serif" font-size="14.00">IDENTIFIER_DATA</text>
<text text-anchor="middle" x="1457.77" y="-267.15" font-family="Times,serif" font-size="14.00">i</text>
</g>
<!-- node0x556a21c09ab0&#45;&#45;node0x556a21c09ba0 -->
<g id="edge24" class="edge">
<title>node0x556a21c09ab0&#45;&#45;node0x556a21c09ba0</title>
<path fill="none" stroke="black" d="M1543.3,-344.04C1527.05,-331.75 1507.06,-316.63 1490.49,-304.09"/>
</g>
<!-- node0x556a21c09a60 -->
<g id="node26" class="node">
<title>node0x556a21c09a60</title>
<ellipse fill="none" stroke="black" cx="1689.77" cy="-278.35" rx="106.55" ry="26.74"/>
<text text-anchor="middle" x="1689.77" y="-282.15" font-family="Times,serif" font-size="14.00">IDENTIFIER_DATA</text>
<text text-anchor="middle" x="1689.77" y="-267.15" font-family="Times,serif" font-size="14.00">__FOR_END__</text>
</g>
<!-- node0x556a21c09ab0&#45;&#45;node0x556a21c09a60 -->
<g id="edge25" class="edge">
<title>node0x556a21c09ab0&#45;&#45;node0x556a21c09a60</title>
<path fill="none" stroke="black" d="M1604.25,-344.04C1620.5,-331.75 1640.49,-316.63 1657.06,-304.09"/>
</g>
<!-- node0x556a21c04590 -->
<g id="node28" class="node">
<title>node0x556a21c04590</title>
<ellipse fill="none" stroke="black" cx="1911.77" cy="-278.35" rx="96.68" ry="18"/>
<text text-anchor="middle" x="1911.77" y="-274.65" font-family="Times,serif" font-size="14.00">STATEMENT_LIST</text>
</g>
<!-- node0x556a21c045e0&#45;&#45;node0x556a21c04590 -->
<g id="edge27" class="edge">
<title>node0x556a21c045e0&#45;&#45;node0x556a21c04590</title>
<path fill="none" stroke="black" d="M1825.55,-351.4C1844.07,-335.93 1872.3,-312.33 1891.37,-296.4"/>
</g>
<!-- node0x556a21c09950 -->
<g id="node29" class="node">
<title>node0x556a21c09950</title>
<ellipse fill="none" stroke="black" cx="1778.77" cy="-197.48" rx="105.08" ry="18"/>
<text text-anchor="middle" x="1778.77" y="-193.78" font-family="Times,serif" font-size="14.00">PRINT_STATEMENT</text>
</g>
<!-- node0x556a21c04590&#45;&#45;node0x556a21c09950 -->
<g id="edge28" class="edge">
<title>node0x556a21c04590&#45;&#45;node0x556a21c09950</title>
<path fill="none" stroke="black" d="M1883.89,-260.82C1861.35,-247.45 1829.73,-228.7 1807.08,-215.26"/>
</g>
<!-- node0x556a21c04540 -->
<g id="node32" class="node">
<title>node0x556a21c04540</title>
<ellipse fill="none" stroke="black" cx="2043.77" cy="-197.48" rx="141.88" ry="18"/>
<text text-anchor="middle" x="2043.77" y="-193.78" font-family="Times,serif" font-size="14.00">ASSIGNMENT_STATEMENT</text>
</g>
<!-- node0x556a21c04590&#45;&#45;node0x556a21c04540 -->
<g id="edge31" class="edge">
<title>node0x556a21c04590&#45;&#45;node0x556a21c04540</title>
<path fill="none" stroke="black" d="M1939.44,-260.82C1961.67,-247.54 1992.77,-228.95 2015.23,-215.54"/>
</g>
<!-- node0x556a21c098b0 -->
<g id="node30" class="node">
<title>node0x556a21c098b0</title>
<ellipse fill="none" stroke="black" cx="1578.77" cy="-116.61" rx="84.29" ry="26.74"/>
<text text-anchor="middle" x="1578.77" y="-120.41" font-family="Times,serif" font-size="14.00">STRING_DATA</text>
<text text-anchor="middle" x="1578.77" y="-105.41" font-family="Times,serif" font-size="14.00">&quot;i is now&quot;</text>
</g>
<!-- node0x556a21c09950&#45;&#45;node0x556a21c098b0 -->
<g id="edge29" class="edge">
<title>node0x556a21c09950&#45;&#45;node0x556a21c098b0</title>
<path fill="none" stroke="black" d="M1738.3,-180.52C1707.25,-168.28 1664.17,-151.29 1630.6,-138.05"/>
</g>
<!-- node0x556a21c099c0 -->
<g id="node31" class="node">
<title>node0x556a21c099c0</title>
<ellipse fill="none" stroke="black" cx="1787.77" cy="-116.61" rx="106.55" ry="26.74"/>
<text text-anchor="middle" x="1787.77" y="-120.41" font-family="Times,serif" font-size="14.00">IDENTIFIER_DATA</text>
<text text-anchor="middle" x="1787.77" y="-105.41" font-family="Times,serif" font-size="14.00">i</text>
</g>
<!-- node0x556a21c09950&#45;&#45;node0x556a21c099c0 -->
<g id="edge30" class="edge">
<title>node0x556a21c09950&#45;&#45;node0x556a21c099c0</title>
<path fill="none" stroke="black" d="M1780.73,-179.37C1781.92,-168.95 1783.46,-155.43 1784.8,-143.69"/>
</g>
<!-- node0x556a21c044f0 -->
<g id="node33" class="node">
<title>node0x556a21c044f0</title>
<ellipse fill="none" stroke="black" cx="2035.77" cy="-116.61" rx="106.55" ry="26.74"/>
<text text-anchor="middle" x="2035.77" y="-120.41" font-family="Times,serif" font-size="14.00">IDENTIFIER_DATA</text>
<text text-anchor="middle" x="2035.77" y="-105.41" font-family="Times,serif" font-size="14.00">i</text>
</g>
<!-- node0x556a21c04540&#45;&#45;node0x556a21c044f0 -->
<g id="edge32" class="edge">
<title>node0x556a21c04540&#45;&#45;node0x556a21c044f0</title>
<path fill="none" stroke="black" d="M2042.04,-179.37C2040.98,-168.95 2039.61,-155.43 2038.42,-143.69"/>
</g>
<!-- node0x556a21c09bd0 -->
<g id="node34" class="node">
<title>node0x556a21c09bd0</title>
<ellipse fill="none" stroke="black" cx="2241.77" cy="-116.61" rx="81.13" ry="26.74"/>
<text text-anchor="middle" x="2241.77" y="-120.41" font-family="Times,serif" font-size="14.00">EXPRESSION</text>
<text text-anchor="middle" x="2241.77" y="-105.41" font-family="Times,serif" font-size="14.00">+</text>
</g>
<!-- node0x556a21c04540&#45;&#45;node0x556a21c09bd0 -->
<g id="edge33" class="edge">
<title>node0x556a21c04540&#45;&#45;node0x556a21c09bd0</title>
<path fill="none" stroke="black" d="M2085.28,-179.95C2116.12,-167.66 2158.36,-150.84 2191.18,-137.76"/>
</g>
<!-- node0x556a21c09b00 -->
<g id="node35" class="node">
<title>node0x556a21c09b00</title>
<ellipse fill="none" stroke="black" cx="2132.77" cy="-26.87" rx="106.55" ry="26.74"/>
<text text-anchor="middle" x="2132.77" y="-30.67" font-family="Times,serif" font-size="14.00">IDENTIFIER_DATA</text>
<text text-anchor="middle" x="2132.77" y="-15.67" font-family="Times,serif" font-size="14.00">i</text>
</g>
<!-- node0x556a21c09bd0&#45;&#45;node0x556a21c09b00 -->
<g id="edge34" class="edge">
<title>node0x556a21c09bd0&#45;&#45;node0x556a21c09b00</title>
<path fill="none" stroke="black" d="M2211.7,-91.4C2196.83,-79.43 2178.9,-65 2163.89,-52.92"/>
</g>
<!-- node0x556a21c09b50 -->
<g id="node36" class="node">
<title>node0x556a21c09b50</title>
<ellipse fill="none" stroke="black" cx="2349.77" cy="-26.87" rx="92.76" ry="26.74"/>
<text text-anchor="middle" x="2349.77" y="-30.67" font-family="Times,serif" font-size="14.00">NUMBER_DATA</text>
<text text-anchor="middle" x="2349.77" y="-15.67" font-family="Times,serif" font-size="14.00">1</text>
</g>
<!-- node0x556a21c09bd0&#45;&#45;node0x556a21c09b50 -->
<g id="edge35" class="edge">
<title>node0x556a21c09bd0&#45;&#45;node0x556a21c09b50</title>
<path fill="none" stroke="black" d="M2271.57,-91.4C2286.43,-79.33 2304.37,-64.75 2319.32,-52.61"/>
</g>
<!-- node0x556a21c09cc0 -->
<g id="node38" class="node">
<title>node0x556a21c09cc0</title>
<ellipse fill="none" stroke="black" cx="1116.77" cy="-529.83" rx="84.29" ry="26.74"/>
<text text-anchor="middle" x="1116.77" y="-533.63" font-family="Times,serif" font-size="14.00">STRING_DATA</text>
<text text-anchor="middle" x="1116.77" y="-518.63" font-family="Times,serif" font-size="14.00">&quot;Done!&quot;</text>
</g>
<!-- node0x556a21c09d60&#45;&#45;node0x556a21c09cc0 -->
<g id="edge37" class="edge">
<title>node0x556a21c09d60&#45;&#45;node0x556a21c09cc0</title>
<path fill="none" stroke="black" d="M1104.24,-592.59C1106.36,-582.17 1109.1,-568.65 1111.48,-556.91"/>
</g>
</g>
</svg>
