<?xml version="1.0" encoding="UTF-8" standalone="no"?>
<!DOCTYPE svg PUBLIC "-//W3C//DTD SVG 1.1//EN"
 "http://www.w3.org/Graphics/SVG/1.1/DTD/svg11.dtd">
<!-- Generated by graphviz version 7.1.0 (0)
 -->
<!-- Pages: 1 -->
<svg width="1292pt" height="439pt"
 viewBox="0.00 0.00 1292.29 439.48" xmlns="http://www.w3.org/2000/svg" xmlns:xlink="http://www.w3.org/1999/xlink">
<g id="graph0" class="graph" transform="scale(1 1) rotate(0) translate(4 435.48)">
<polygon fill="white" stroke="none" points="-4,4 -4,-435.48 1288.29,-435.48 1288.29,4 -4,4"/>
<!-- node0x562b6577cf70 -->
<g id="node1" class="node">
<title>node0x562b6577cf70</title>
<ellipse fill="none" stroke="black" cx="669.15" cy="-413.48" rx="76.09" ry="18"/>
<text text-anchor="middle" x="669.15" y="-409.78" font-family="Times,serif" font-size="14.00">GLOBAL_LIST</text>
</g>
<!-- node0x562b6577ced0 -->
<g id="node2" class="node">
<title>node0x562b6577ced0</title>
<ellipse fill="none" stroke="black" cx="669.15" cy="-341.48" rx="63.89" ry="18"/>
<text text-anchor="middle" x="669.15" y="-337.78" font-family="Times,serif" font-size="14.00">FUNCTION</text>
</g>
<!-- node0x562b6577cf70&#45;&#45;node0x562b6577ced0 -->
<g id="edge1" class="edge">
<title>node0x562b6577cf70&#45;&#45;node0x562b6577ced0</title>
<path fill="none" stroke="black" d="M669.15,-395.18C669.15,-384.33 669.15,-370.4 669.15,-359.58"/>
</g>
<!-- node0x562b6577c350 -->
<g id="node3" class="node">
<title>node0x562b6577c350</title>
<ellipse fill="none" stroke="black" cx="447.15" cy="-260.61" rx="106.55" ry="26.74"/>
<text text-anchor="middle" x="447.15" y="-264.41" font-family="Times,serif" font-size="14.00">IDENTIFIER_DATA</text>
<text text-anchor="middle" x="447.15" y="-249.41" font-family="Times,serif" font-size="14.00">main</text>
</g>
<!-- node0x562b6577ced0&#45;&#45;node0x562b6577c350 -->
<g id="edge2" class="edge">
<title>node0x562b6577ced0&#45;&#45;node0x562b6577c350</title>
<path fill="none" stroke="black" d="M630.48,-326.74C596.56,-314.69 546.69,-296.98 507.52,-283.06"/>
</g>
<!-- node0x562b6577c3a0 -->
<g id="node4" class="node">
<title>node0x562b6577c3a0</title>
<ellipse fill="none" stroke="black" cx="669.15" cy="-260.61" rx="96.68" ry="18"/>
<text text-anchor="middle" x="669.15" y="-256.91" font-family="Times,serif" font-size="14.00">PARAMETER_LIST</text>
</g>
<!-- node0x562b6577ced0&#45;&#45;node0x562b6577c3a0 -->
<g id="edge3" class="edge">
<title>node0x562b6577ced0&#45;&#45;node0x562b6577c3a0</title>
<path fill="none" stroke="black" d="M669.15,-323.37C669.15,-310.23 669.15,-292.16 669.15,-278.96"/>
</g>
<!-- node0x562b6577ce30 -->
<g id="node5" class="node">
<title>node0x562b6577ce30</title>
<ellipse fill="none" stroke="black" cx="828.15" cy="-260.61" rx="44.39" ry="18"/>
<text text-anchor="middle" x="828.15" y="-256.91" font-family="Times,serif" font-size="14.00">BLOCK</text>
</g>
<!-- node0x562b6577ced0&#45;&#45;node0x562b6577ce30 -->
<g id="edge4" class="edge">
<title>node0x562b6577ced0&#45;&#45;node0x562b6577ce30</title>
<path fill="none" stroke="black" d="M699.8,-325.27C729.04,-310.77 772.67,-289.13 800.77,-275.19"/>
</g>
<!-- node0x562b6577c7c0 -->
<g id="node6" class="node">
<title>node0x562b6577c7c0</title>
<ellipse fill="none" stroke="black" cx="828.15" cy="-179.74" rx="96.68" ry="18"/>
<text text-anchor="middle" x="828.15" y="-176.04" font-family="Times,serif" font-size="14.00">STATEMENT_LIST</text>
</g>
<!-- node0x562b6577ce30&#45;&#45;node0x562b6577c7c0 -->
<g id="edge5" class="edge">
<title>node0x562b6577ce30&#45;&#45;node0x562b6577c7c0</title>
<path fill="none" stroke="black" d="M828.15,-242.5C828.15,-229.36 828.15,-211.29 828.15,-198.09"/>
</g>
<!-- node0x562b6577c4b0 -->
<g id="node7" class="node">
<title>node0x562b6577c4b0</title>
<ellipse fill="none" stroke="black" cx="363.15" cy="-107.74" rx="105.08" ry="18"/>
<text text-anchor="middle" x="363.15" y="-104.04" font-family="Times,serif" font-size="14.00">PRINT_STATEMENT</text>
</g>
<!-- node0x562b6577c7c0&#45;&#45;node0x562b6577c4b0 -->
<g id="edge6" class="edge">
<title>node0x562b6577c7c0&#45;&#45;node0x562b6577c4b0</title>
<path fill="none" stroke="black" d="M754.72,-167.69C668.86,-154.76 527.39,-133.46 440.05,-120.32"/>
</g>
<!-- node0x562b6577c8d0 -->
<g id="node11" class="node">
<title>node0x562b6577c8d0</title>
<ellipse fill="none" stroke="black" cx="828.15" cy="-107.74" rx="105.08" ry="18"/>
<text text-anchor="middle" x="828.15" y="-104.04" font-family="Times,serif" font-size="14.00">PRINT_STATEMENT</text>
</g>
<!-- node0x562b6577c7c0&#45;&#45;node0x562b6577c8d0 -->
<g id="edge10" class="edge">
<title>node0x562b6577c7c0&#45;&#45;node0x562b6577c8d0</title>
<path fill="none" stroke="black" d="M828.15,-161.44C828.15,-150.59 828.15,-136.66 828.15,-125.84"/>
</g>
<!-- node0x562b6577ccf0 -->
<g id="node15" class="node">
<title>node0x562b6577ccf0</title>
<ellipse fill="none" stroke="black" cx="1128.15" cy="-107.74" rx="105.08" ry="18"/>
<text text-anchor="middle" x="1128.15" y="-104.04" font-family="Times,serif" font-size="14.00">PRINT_STATEMENT</text>
</g>
<!-- node0x562b6577c7c0&#45;&#45;node0x562b6577ccf0 -->
<g id="edge14" class="edge">
<title>node0x562b6577c7c0&#45;&#45;node0x562b6577ccf0</title>
<path fill="none" stroke="black" d="M886.7,-165.08C938.88,-152.9 1014.93,-135.16 1067.68,-122.85"/>
</g>
<!-- node0x562b6577c410 -->
<g id="node8" class="node">
<title>node0x562b6577c410</title>
<ellipse fill="none" stroke="black" cx="84.15" cy="-26.87" rx="84.29" ry="26.74"/>
<text text-anchor="middle" x="84.15" y="-30.67" font-family="Times,serif" font-size="14.00">STRING_DATA</text>
<text text-anchor="middle" x="84.15" y="-15.67" font-family="Times,serif" font-size="14.00">&quot;Hello&quot;</text>
</g>
<!-- node0x562b6577c4b0&#45;&#45;node0x562b6577c410 -->
<g id="edge7" class="edge">
<title>node0x562b6577c4b0&#45;&#45;node0x562b6577c410</title>
<path fill="none" stroke="black" d="M310.34,-91.81C263.58,-78.59 195.28,-59.29 145.98,-45.35"/>
</g>
<!-- node0x562b6577c520 -->
<g id="node9" class="node">
<title>node0x562b6577c520</title>
<ellipse fill="none" stroke="black" cx="270.15" cy="-26.87" rx="84.29" ry="26.74"/>
<text text-anchor="middle" x="270.15" y="-30.67" font-family="Times,serif" font-size="14.00">STRING_DATA</text>
<text text-anchor="middle" x="270.15" y="-15.67" font-family="Times,serif" font-size="14.00">&quot; &quot;</text>
</g>
<!-- node0x562b6577c4b0&#45;&#45;node0x562b6577c520 -->
<g id="edge8" class="edge">
<title>node0x562b6577c4b0&#45;&#45;node0x562b6577c520</title>
<path fill="none" stroke="black" d="M342.97,-89.63C330.14,-78.75 313.34,-64.5 299.11,-52.43"/>
</g>
<!-- node0x562b6577c630 -->
<g id="node10" class="node">
<title>node0x562b6577c630</title>
<ellipse fill="none" stroke="black" cx="456.15" cy="-26.87" rx="84.29" ry="26.74"/>
<text text-anchor="middle" x="456.15" y="-30.67" font-family="Times,serif" font-size="14.00">STRING_DATA</text>
<text text-anchor="middle" x="456.15" y="-15.67" font-family="Times,serif" font-size="14.00">&quot;World&quot;</text>
</g>
<!-- node0x562b6577c4b0&#45;&#45;node0x562b6577c630 -->
<g id="edge9" class="edge">
<title>node0x562b6577c4b0&#45;&#45;node0x562b6577c630</title>
<path fill="none" stroke="black" d="M383.33,-89.63C396.15,-78.75 412.95,-64.5 427.18,-52.43"/>
</g>
<!-- node0x562b6577c830 -->
<g id="node12" class="node">
<title>node0x562b6577c830</title>
<ellipse fill="none" stroke="black" cx="642.15" cy="-26.87" rx="84.29" ry="26.74"/>
<text text-anchor="middle" x="642.15" y="-30.67" font-family="Times,serif" font-size="14.00">STRING_DATA</text>
<text text-anchor="middle" x="642.15" y="-15.67" font-family="Times,serif" font-size="14.00">&quot;Hallo&quot;</text>
</g>
<!-- node0x562b6577c8d0&#45;&#45;node0x562b6577c830 -->
<g id="edge11" class="edge">
<title>node0x562b6577c8d0&#45;&#45;node0x562b6577c830</title>
<path fill="none" stroke="black" d="M790.06,-90.59C761.57,-78.51 722.38,-61.89 691.5,-48.8"/>
</g>
<!-- node0x562b6577c940 -->
<g id="node13" class="node">
<title>node0x562b6577c940</title>
<ellipse fill="none" stroke="black" cx="828.15" cy="-26.87" rx="84.29" ry="26.74"/>
<text text-anchor="middle" x="828.15" y="-30.67" font-family="Times,serif" font-size="14.00">STRING_DATA</text>
<text text-anchor="middle" x="828.15" y="-15.67" font-family="Times,serif" font-size="14.00">&quot; &quot;</text>
</g>
<!-- node0x562b6577c8d0&#45;&#45;node0x562b6577c940 -->
<g id="edge12" class="edge">
<title>node0x562b6577c8d0&#45;&#45;node0x562b6577c940</title>
<path fill="none" stroke="black" d="M828.15,-89.63C828.15,-79.21 828.15,-65.69 828.15,-53.95"/>
</g>
<!-- node0x562b6577ca50 -->
<g id="node14" class="node">
<title>node0x562b6577ca50</title>
<ellipse fill="none" stroke="black" cx="1014.15" cy="-26.87" rx="84.29" ry="26.74"/>
<text text-anchor="middle" x="1014.15" y="-30.67" font-family="Times,serif" font-size="14.00">STRING_DATA</text>
<text text-anchor="middle" x="1014.15" y="-15.67" font-family="Times,serif" font-size="14.00">&quot;Verden&quot;</text>
</g>
<!-- node0x562b6577c8d0&#45;&#45;node0x562b6577ca50 -->
<g id="edge13" class="edge">
<title>node0x562b6577c8d0&#45;&#45;node0x562b6577ca50</title>
<path fill="none" stroke="black" d="M866.23,-90.59C894.72,-78.51 933.91,-61.89 964.79,-48.8"/>
</g>
<!-- node0x562b6577cc50 -->
<g id="node16" class="node">
<title>node0x562b6577cc50</title>
<ellipse fill="none" stroke="black" cx="1200.15" cy="-26.87" rx="84.29" ry="26.74"/>
<text text-anchor="middle" x="1200.15" y="-30.67" font-family="Times,serif" font-size="14.00">STRING_DATA</text>
<text text-anchor="middle" x="1200.15" y="-15.67" font-family="Times,serif" font-size="14.00">&quot;Goodbye\n&quot;</text>
</g>
<!-- node0x562b6577ccf0&#45;&#45;node0x562b6577cc50 -->
<g id="edge15" class="edge">
<title>node0x562b6577ccf0&#45;&#45;node0x562b6577cc50</title>
<path fill="none" stroke="black" d="M1143.77,-89.63C1153.53,-78.93 1166.27,-64.98 1177.17,-53.04"/>
</g>
</g>
</svg>
