<?xml version="1.0" encoding="UTF-8" standalone="no"?>
<!DOCTYPE svg PUBLIC "-//W3C//DTD SVG 1.1//EN"
 "http://www.w3.org/Graphics/SVG/1.1/DTD/svg11.dtd">
<!-- Generated by graphviz version 7.1.0 (0)
 -->
<!-- Pages: 1 -->
<svg width="2313pt" height="960pt"
 viewBox="0.00 0.00 2313.40 960.18" xmlns="http://www.w3.org/2000/svg" xmlns:xlink="http://www.w3.org/1999/xlink">
<g id="graph0" class="graph" transform="scale(1 1) rotate(0) translate(4 956.18)">
<polygon fill="white" stroke="none" points="-4,4 -4,-956.18 2309.4,-956.18 2309.4,4 -4,4"/>
<!-- node0x564b4d34cfe0 -->
<g id="node1" class="node">
<title>node0x564b4d34cfe0</title>
<ellipse fill="none" stroke="black" cx="648.77" cy="-934.18" rx="76.09" ry="18"/>
<text text-anchor="middle" x="648.77" y="-930.48" font-family="Times,serif" font-size="14.00">GLOBAL_LIST</text>
</g>
<!-- node0x564b4d34cf40 -->
<g id="node2" class="node">
<title>node0x564b4d34cf40</title>
<ellipse fill="none" stroke="black" cx="648.77" cy="-862.18" rx="63.89" ry="18"/>
<text text-anchor="middle" x="648.77" y="-858.48" font-family="Times,serif" font-size="14.00">FUNCTION</text>
</g>
<!-- node0x564b4d34cfe0&#45;&#45;node0x564b4d34cf40 -->
<g id="edge1" class="edge">
<title>node0x564b4d34cfe0&#45;&#45;node0x564b4d34cf40</title>
<path fill="none" stroke="black" d="M648.77,-915.88C648.77,-905.03 648.77,-891.1 648.77,-880.29"/>
</g>
<!-- node0x564b4d34c350 -->
<g id="node3" class="node">
<title>node0x564b4d34c350</title>
<ellipse fill="none" stroke="black" cx="426.77" cy="-781.31" rx="106.55" ry="26.74"/>
<text text-anchor="middle" x="426.77" y="-785.11" font-family="Times,serif" font-size="14.00">IDENTIFIER_DATA</text>
<text text-anchor="middle" x="426.77" y="-770.11" font-family="Times,serif" font-size="14.00">main</text>
</g>
<!-- node0x564b4d34cf40&#45;&#45;node0x564b4d34c350 -->
<g id="edge2" class="edge">
<title>node0x564b4d34cf40&#45;&#45;node0x564b4d34c350</title>
<path fill="none" stroke="black" d="M610.1,-847.44C576.19,-835.39 526.32,-817.68 487.15,-803.76"/>
</g>
<!-- node0x564b4d34c410 -->
<g id="node4" class="node">
<title>node0x564b4d34c410</title>
<ellipse fill="none" stroke="black" cx="648.77" cy="-781.31" rx="96.68" ry="18"/>
<text text-anchor="middle" x="648.77" y="-777.61" font-family="Times,serif" font-size="14.00">PARAMETER_LIST</text>
</g>
<!-- node0x564b4d34cf40&#45;&#45;node0x564b4d34c410 -->
<g id="edge3" class="edge">
<title>node0x564b4d34cf40&#45;&#45;node0x564b4d34c410</title>
<path fill="none" stroke="black" d="M648.77,-844.07C648.77,-830.93 648.77,-812.86 648.77,-799.66"/>
</g>
<!-- node0x564b4d34cea0 -->
<g id="node7" class="node">
<title>node0x564b4d34cea0</title>
<ellipse fill="none" stroke="black" cx="838.77" cy="-781.31" rx="44.39" ry="18"/>
<text text-anchor="middle" x="838.77" y="-777.61" font-family="Times,serif" font-size="14.00">BLOCK</text>
</g>
<!-- node0x564b4d34cf40&#45;&#45;node0x564b4d34cea0 -->
<g id="edge6" class="edge">
<title>node0x564b4d34cf40&#45;&#45;node0x564b4d34cea0</title>
<path fill="none" stroke="black" d="M683.62,-846.71C719.4,-831.86 774.53,-808.98 808.53,-794.87"/>
</g>
<!-- node0x564b4d34c3c0 -->
<g id="node5" class="node">
<title>node0x564b4d34c3c0</title>
<ellipse fill="none" stroke="black" cx="416.77" cy="-691.57" rx="106.55" ry="26.74"/>
<text text-anchor="middle" x="416.77" y="-695.37" font-family="Times,serif" font-size="14.00">IDENTIFIER_DATA</text>
<text text-anchor="middle" x="416.77" y="-680.37" font-family="Times,serif" font-size="14.00">a</text>
</g>
<!-- node0x564b4d34c410&#45;&#45;node0x564b4d34c3c0 -->
<g id="edge4" class="edge">
<title>node0x564b4d34c410&#45;&#45;node0x564b4d34c3c0</title>
<path fill="none" stroke="black" d="M607.3,-764.62C570.28,-750.63 515.71,-729.99 474.45,-714.38"/>
</g>
<!-- node0x564b4d34c480 -->
<g id="node6" class="node">
<title>node0x564b4d34c480</title>
<ellipse fill="none" stroke="black" cx="648.77" cy="-691.57" rx="106.55" ry="26.74"/>
<text text-anchor="middle" x="648.77" y="-695.37" font-family="Times,serif" font-size="14.00">IDENTIFIER_DATA</text>
<text text-anchor="middle" x="648.77" y="-680.37" font-family="Times,serif" font-size="14.00">b</text>
</g>
<!-- node0x564b4d34c410&#45;&#45;node0x564b4d34c480 -->
<g id="edge5" class="edge">
<title>node0x564b4d34c410&#45;&#45;node0x564b4d34c480</title>
<path fill="none" stroke="black" d="M648.77,-762.98C648.77,-750.29 648.77,-732.86 648.77,-718.52"/>
</g>
<!-- node0x564b4d34cc50 -->
<g id="node8" class="node">
<title>node0x564b4d34cc50</title>
<ellipse fill="none" stroke="black" cx="870.77" cy="-691.57" rx="96.68" ry="18"/>
<text text-anchor="middle" x="870.77" y="-687.87" font-family="Times,serif" font-size="14.00">STATEMENT_LIST</text>
</g>
<!-- node0x564b4d34cea0&#45;&#45;node0x564b4d34cc50 -->
<g id="edge7" class="edge">
<title>node0x564b4d34cea0&#45;&#45;node0x564b4d34cc50</title>
<path fill="none" stroke="black" d="M844.94,-763.39C850.57,-747.96 858.85,-725.25 864.51,-709.74"/>
</g>
<!-- node0x564b4d347720 -->
<g id="node9" class="node">
<title>node0x564b4d347720</title>
<ellipse fill="none" stroke="black" cx="779.77" cy="-610.7" rx="44.39" ry="18"/>
<text text-anchor="middle" x="779.77" y="-607" font-family="Times,serif" font-size="14.00">BLOCK</text>
</g>
<!-- node0x564b4d34cc50&#45;&#45;node0x564b4d347720 -->
<g id="edge8" class="edge">
<title>node0x564b4d34cc50&#45;&#45;node0x564b4d347720</title>
<path fill="none" stroke="black" d="M851.03,-673.46C835.24,-659.77 813.29,-640.75 797.93,-627.44"/>
</g>
<!-- node0x564b4d34cd60 -->
<g id="node38" class="node">
<title>node0x564b4d34cd60</title>
<ellipse fill="none" stroke="black" cx="962.77" cy="-610.7" rx="105.08" ry="18"/>
<text text-anchor="middle" x="962.77" y="-607" font-family="Times,serif" font-size="14.00">PRINT_STATEMENT</text>
</g>
<!-- node0x564b4d34cc50&#45;&#45;node0x564b4d34cd60 -->
<g id="edge37" class="edge">
<title>node0x564b4d34cc50&#45;&#45;node0x564b4d34cd60</title>
<path fill="none" stroke="black" d="M890.28,-673.84C905.79,-660.55 927.39,-642.03 942.97,-628.67"/>
</g>
<!-- node0x564b4d34c710 -->
<g id="node10" class="node">
<title>node0x564b4d34c710</title>
<ellipse fill="none" stroke="black" cx="548.77" cy="-529.83" rx="106.68" ry="18"/>
<text text-anchor="middle" x="548.77" y="-526.13" font-family="Times,serif" font-size="14.00">DECLARATION_LIST</text>
</g>
<!-- node0x564b4d347720&#45;&#45;node0x564b4d34c710 -->
<g id="edge9" class="edge">
<title>node0x564b4d347720&#45;&#45;node0x564b4d34c710</title>
<path fill="none" stroke="black" d="M746.68,-598.4C706.76,-584.77 639.43,-561.78 594.55,-546.46"/>
</g>
<!-- node0x564b4d3476d0 -->
<g id="node15" class="node">
<title>node0x564b4d3476d0</title>
<ellipse fill="none" stroke="black" cx="779.77" cy="-529.83" rx="96.68" ry="18"/>
<text text-anchor="middle" x="779.77" y="-526.13" font-family="Times,serif" font-size="14.00">STATEMENT_LIST</text>
</g>
<!-- node0x564b4d347720&#45;&#45;node0x564b4d3476d0 -->
<g id="edge14" class="edge">
<title>node0x564b4d347720&#45;&#45;node0x564b4d3476d0</title>
<path fill="none" stroke="black" d="M779.77,-592.59C779.77,-579.45 779.77,-561.38 779.77,-548.18"/>
</g>
<!-- node0x564b4d34c7d0 -->
<g id="node11" class="node">
<title>node0x564b4d34c7d0</title>
<ellipse fill="none" stroke="black" cx="322.77" cy="-448.96" rx="81.49" ry="18"/>
<text text-anchor="middle" x="322.77" y="-445.26" font-family="Times,serif" font-size="14.00">DECLARATION</text>
</g>
<!-- node0x564b4d34c710&#45;&#45;node0x564b4d34c7d0 -->
<g id="edge10" class="edge">
<title>node0x564b4d34c710&#45;&#45;node0x564b4d34c7d0</title>
<path fill="none" stroke="black" d="M503.58,-513.06C463.26,-498.99 404.67,-478.54 365.21,-464.77"/>
</g>
<!-- node0x564b4d34c900 -->
<g id="node12" class="node">
<title>node0x564b4d34c900</title>
<ellipse fill="none" stroke="black" cx="222.77" cy="-368.09" rx="85.29" ry="18"/>
<text text-anchor="middle" x="222.77" y="-364.39" font-family="Times,serif" font-size="14.00">VARIABLE_LIST</text>
</g>
<!-- node0x564b4d34c7d0&#45;&#45;node0x564b4d34c900 -->
<g id="edge11" class="edge">
<title>node0x564b4d34c7d0&#45;&#45;node0x564b4d34c900</title>
<path fill="none" stroke="black" d="M301.57,-431.23C284.6,-417.85 260.91,-399.17 243.95,-385.79"/>
</g>
<!-- node0x564b4d34c590 -->
<g id="node13" class="node">
<title>node0x564b4d34c590</title>
<ellipse fill="none" stroke="black" cx="106.77" cy="-278.35" rx="106.55" ry="26.74"/>
<text text-anchor="middle" x="106.77" y="-282.15" font-family="Times,serif" font-size="14.00">IDENTIFIER_DATA</text>
<text text-anchor="middle" x="106.77" y="-267.15" font-family="Times,serif" font-size="14.00">i</text>
</g>
<!-- node0x564b4d34c900&#45;&#45;node0x564b4d34c590 -->
<g id="edge12" class="edge">
<title>node0x564b4d34c900&#45;&#45;node0x564b4d34c590</title>
<path fill="none" stroke="black" d="M200.68,-350.38C183.33,-337.25 158.9,-318.78 139.31,-303.96"/>
</g>
<!-- node0x564b4d34ca10 -->
<g id="node14" class="node">
<title>node0x564b4d34ca10</title>
<ellipse fill="none" stroke="black" cx="338.77" cy="-278.35" rx="106.55" ry="26.74"/>
<text text-anchor="middle" x="338.77" y="-282.15" font-family="Times,serif" font-size="14.00">IDENTIFIER_DATA</text>
<text text-anchor="middle" x="338.77" y="-267.15" font-family="Times,serif" font-size="14.00">__FOR_END__</text>
</g>
<!-- node0x564b4d34c900&#45;&#45;node0x564b4d34ca10 -->
<g id="edge13" class="edge">
<title>node0x564b4d34c900&#45;&#45;node0x564b4d34ca10</title>
<path fill="none" stroke="black" d="M244.86,-350.38C262.22,-337.25 286.64,-318.78 306.23,-303.96"/>
</g>
<!-- node0x564b4d34c520 -->
<g id="node16" class="node">
<title>node0x564b4d34c520</title>
<ellipse fill="none" stroke="black" cx="629.77" cy="-448.96" rx="141.88" ry="18"/>
<text text-anchor="middle" x="629.77" y="-445.26" font-family="Times,serif" font-size="14.00">ASSIGNMENT_STATEMENT</text>
</g>
<!-- node0x564b4d3476d0&#45;&#45;node0x564b4d34c520 -->
<g id="edge15" class="edge">
<title>node0x564b4d3476d0&#45;&#45;node0x564b4d34c520</title>
<path fill="none" stroke="black" d="M748.69,-512.49C723.38,-499.18 687.76,-480.45 662.11,-466.96"/>
</g>
<!-- node0x564b4d34cba0 -->
<g id="node19" class="node">
<title>node0x564b4d34cba0</title>
<ellipse fill="none" stroke="black" cx="930.77" cy="-448.96" rx="141.88" ry="18"/>
<text text-anchor="middle" x="930.77" y="-445.26" font-family="Times,serif" font-size="14.00">ASSIGNMENT_STATEMENT</text>
</g>
<!-- node0x564b4d3476d0&#45;&#45;node0x564b4d34cba0 -->
<g id="edge18" class="edge">
<title>node0x564b4d3476d0&#45;&#45;node0x564b4d34cba0</title>
<path fill="none" stroke="black" d="M811.06,-512.49C836.54,-499.18 872.4,-480.45 898.22,-466.96"/>
</g>
<!-- node0x564b4d347680 -->
<g id="node24" class="node">
<title>node0x564b4d347680</title>
<ellipse fill="none" stroke="black" cx="1435.77" cy="-448.96" rx="108.58" ry="18"/>
<text text-anchor="middle" x="1435.77" y="-445.26" font-family="Times,serif" font-size="14.00">WHILE_STATEMENT</text>
</g>
<!-- node0x564b4d3476d0&#45;&#45;node0x564b4d347680 -->
<g id="edge23" class="edge">
<title>node0x564b4d3476d0&#45;&#45;node0x564b4d347680</title>
<path fill="none" stroke="black" d="M832.57,-514.37C849.46,-510.17 868.31,-505.92 885.77,-502.96 1040.77,-476.72 1222.7,-462.35 1333.58,-455.42"/>
</g>
<!-- node0x564b4d34c650 -->
<g id="node17" class="node">
<title>node0x564b4d34c650</title>
<ellipse fill="none" stroke="black" cx="432.77" cy="-368.09" rx="106.55" ry="26.74"/>
<text text-anchor="middle" x="432.77" y="-371.89" font-family="Times,serif" font-size="14.00">IDENTIFIER_DATA</text>
<text text-anchor="middle" x="432.77" y="-356.89" font-family="Times,serif" font-size="14.00">i</text>
</g>
<!-- node0x564b4d34c520&#45;&#45;node0x564b4d34c650 -->
<g id="edge16" class="edge">
<title>node0x564b4d34c520&#45;&#45;node0x564b4d34c650</title>
<path fill="none" stroke="black" d="M588.48,-431.43C559.37,-419.77 520.06,-404.04 488.22,-391.29"/>
</g>
<!-- node0x564b4d34c600 -->
<g id="node18" class="node">
<title>node0x564b4d34c600</title>
<ellipse fill="none" stroke="black" cx="664.77" cy="-368.09" rx="106.55" ry="26.74"/>
<text text-anchor="middle" x="664.77" y="-371.89" font-family="Times,serif" font-size="14.00">IDENTIFIER_DATA</text>
<text text-anchor="middle" x="664.77" y="-356.89" font-family="Times,serif" font-size="14.00">a</text>
</g>
<!-- node0x564b4d34c520&#45;&#45;node0x564b4d34c600 -->
<g id="edge17" class="edge">
<title>node0x564b4d34c520&#45;&#45;node0x564b4d34c600</title>
<path fill="none" stroke="black" d="M637.37,-430.85C642.03,-420.34 648.1,-406.67 653.33,-394.87"/>
</g>
<!-- node0x564b4d34c4d0 -->
<g id="node20" class="node">
<title>node0x564b4d34c4d0</title>
<ellipse fill="none" stroke="black" cx="896.77" cy="-368.09" rx="106.55" ry="26.74"/>
<text text-anchor="middle" x="896.77" y="-371.89" font-family="Times,serif" font-size="14.00">IDENTIFIER_DATA</text>
<text text-anchor="middle" x="896.77" y="-356.89" font-family="Times,serif" font-size="14.00">__FOR_END__</text>
</g>
<!-- node0x564b4d34cba0&#45;&#45;node0x564b4d34c4d0 -->
<g id="edge19" class="edge">
<title>node0x564b4d34cba0&#45;&#45;node0x564b4d34c4d0</title>
<path fill="none" stroke="black" d="M923.4,-430.85C918.9,-420.43 913.08,-406.91 908.02,-395.17"/>
</g>
<!-- node0x564b4d34c840 -->
<g id="node21" class="node">
<title>node0x564b4d34c840</title>
<ellipse fill="none" stroke="black" cx="1102.77" cy="-368.09" rx="81.13" ry="26.74"/>
<text text-anchor="middle" x="1102.77" y="-371.89" font-family="Times,serif" font-size="14.00">EXPRESSION</text>
<text text-anchor="middle" x="1102.77" y="-356.89" font-family="Times,serif" font-size="14.00">+</text>
</g>
<!-- node0x564b4d34cba0&#45;&#45;node0x564b4d34c840 -->
<g id="edge20" class="edge">
<title>node0x564b4d34cba0&#45;&#45;node0x564b4d34c840</title>
<path fill="none" stroke="black" d="M967.25,-431.23C993.18,-419.34 1028.23,-403.27 1056.19,-390.45"/>
</g>
<!-- node0x564b4d34c6c0 -->
<g id="node22" class="node">
<title>node0x564b4d34c6c0</title>
<ellipse fill="none" stroke="black" cx="885.77" cy="-278.35" rx="106.55" ry="26.74"/>
<text text-anchor="middle" x="885.77" y="-282.15" font-family="Times,serif" font-size="14.00">IDENTIFIER_DATA</text>
<text text-anchor="middle" x="885.77" y="-267.15" font-family="Times,serif" font-size="14.00">b</text>
</g>
<!-- node0x564b4d34c840&#45;&#45;node0x564b4d34c6c0 -->
<g id="edge21" class="edge">
<title>node0x564b4d34c840&#45;&#45;node0x564b4d34c6c0</title>
<path fill="none" stroke="black" d="M1052.44,-346.74C1019.01,-333.22 975.13,-315.48 940.78,-301.59"/>
</g>
<!-- node0x564b4d34c780 -->
<g id="node23" class="node">
<title>node0x564b4d34c780</title>
<ellipse fill="none" stroke="black" cx="1102.77" cy="-278.35" rx="92.76" ry="26.74"/>
<text text-anchor="middle" x="1102.77" y="-282.15" font-family="Times,serif" font-size="14.00">NUMBER_DATA</text>
<text text-anchor="middle" x="1102.77" y="-267.15" font-family="Times,serif" font-size="14.00">1</text>
</g>
<!-- node0x564b4d34c840&#45;&#45;node0x564b4d34c780 -->
<g id="edge22" class="edge">
<title>node0x564b4d34c840&#45;&#45;node0x564b4d34c780</title>
<path fill="none" stroke="black" d="M1102.77,-341.24C1102.77,-329.92 1102.77,-316.66 1102.77,-305.32"/>
</g>
<!-- node0x564b4d34cb00 -->
<g id="node25" class="node">
<title>node0x564b4d34cb00</title>
<ellipse fill="none" stroke="black" cx="1435.77" cy="-368.09" rx="65.52" ry="26.74"/>
<text text-anchor="middle" x="1435.77" y="-371.89" font-family="Times,serif" font-size="14.00">RELATION</text>
<text text-anchor="middle" x="1435.77" y="-356.89" font-family="Times,serif" font-size="14.00">&lt;</text>
</g>
<!-- node0x564b4d347680&#45;&#45;node0x564b4d34cb00 -->
<g id="edge24" class="edge">
<title>node0x564b4d347680&#45;&#45;node0x564b4d34cb00</title>
<path fill="none" stroke="black" d="M1435.77,-430.85C1435.77,-420.43 1435.77,-406.91 1435.77,-395.17"/>
</g>
<!-- node0x564b4d347630 -->
<g id="node28" class="node">
<title>node0x564b4d347630</title>
<ellipse fill="none" stroke="black" cx="1668.77" cy="-368.09" rx="44.39" ry="18"/>
<text text-anchor="middle" x="1668.77" y="-364.39" font-family="Times,serif" font-size="14.00">BLOCK</text>
</g>
<!-- node0x564b4d347680&#45;&#45;node0x564b4d347630 -->
<g id="edge27" class="edge">
<title>node0x564b4d347680&#45;&#45;node0x564b4d347630</title>
<path fill="none" stroke="black" d="M1482.09,-432.28C1527.34,-416.97 1595.12,-394.02 1635.35,-380.4"/>
</g>
<!-- node0x564b4d34ca60 -->
<g id="node26" class="node">
<title>node0x564b4d34ca60</title>
<ellipse fill="none" stroke="black" cx="1319.77" cy="-278.35" rx="106.55" ry="26.74"/>
<text text-anchor="middle" x="1319.77" y="-282.15" font-family="Times,serif" font-size="14.00">IDENTIFIER_DATA</text>
<text text-anchor="middle" x="1319.77" y="-267.15" font-family="Times,serif" font-size="14.00">i</text>
</g>
<!-- node0x564b4d34cb00&#45;&#45;node0x564b4d34ca60 -->
<g id="edge25" class="edge">
<title>node0x564b4d34cb00&#45;&#45;node0x564b4d34ca60</title>
<path fill="none" stroke="black" d="M1405.3,-344.04C1389.05,-331.75 1369.06,-316.63 1352.49,-304.09"/>
</g>
<!-- node0x564b4d34cab0 -->
<g id="node27" class="node">
<title>node0x564b4d34cab0</title>
<ellipse fill="none" stroke="black" cx="1551.77" cy="-278.35" rx="106.55" ry="26.74"/>
<text text-anchor="middle" x="1551.77" y="-282.15" font-family="Times,serif" font-size="14.00">IDENTIFIER_DATA</text>
<text text-anchor="middle" x="1551.77" y="-267.15" font-family="Times,serif" font-size="14.00">__FOR_END__</text>
</g>
<!-- node0x564b4d34cb00&#45;&#45;node0x564b4d34cab0 -->
<g id="edge26" class="edge">
<title>node0x564b4d34cb00&#45;&#45;node0x564b4d34cab0</title>
<path fill="none" stroke="black" d="M1466.25,-344.04C1482.5,-331.75 1502.49,-316.63 1519.06,-304.09"/>
</g>
<!-- node0x564b4d3475e0 -->
<g id="node29" class="node">
<title>node0x564b4d3475e0</title>
<ellipse fill="none" stroke="black" cx="1773.77" cy="-278.35" rx="96.68" ry="18"/>
<text text-anchor="middle" x="1773.77" y="-274.65" font-family="Times,serif" font-size="14.00">STATEMENT_LIST</text>
</g>
<!-- node0x564b4d347630&#45;&#45;node0x564b4d3475e0 -->
<g id="edge28" class="edge">
<title>node0x564b4d347630&#45;&#45;node0x564b4d3475e0</title>
<path fill="none" stroke="black" d="M1687.55,-351.4C1706.07,-335.93 1734.3,-312.33 1753.37,-296.4"/>
</g>
<!-- node0x564b4d34c950 -->
<g id="node30" class="node">
<title>node0x564b4d34c950</title>
<ellipse fill="none" stroke="black" cx="1641.77" cy="-197.48" rx="105.08" ry="18"/>
<text text-anchor="middle" x="1641.77" y="-193.78" font-family="Times,serif" font-size="14.00">PRINT_STATEMENT</text>
</g>
<!-- node0x564b4d3475e0&#45;&#45;node0x564b4d34c950 -->
<g id="edge29" class="edge">
<title>node0x564b4d3475e0&#45;&#45;node0x564b4d34c950</title>
<path fill="none" stroke="black" d="M1746.1,-260.82C1723.72,-247.45 1692.35,-228.7 1669.86,-215.26"/>
</g>
<!-- node0x564b4d347590 -->
<g id="node33" class="node">
<title>node0x564b4d347590</title>
<ellipse fill="none" stroke="black" cx="1906.77" cy="-197.48" rx="141.88" ry="18"/>
<text text-anchor="middle" x="1906.77" y="-193.78" font-family="Times,serif" font-size="14.00">ASSIGNMENT_STATEMENT</text>
</g>
<!-- node0x564b4d3475e0&#45;&#45;node0x564b4d347590 -->
<g id="edge32" class="edge">
<title>node0x564b4d3475e0&#45;&#45;node0x564b4d347590</title>
<path fill="none" stroke="black" d="M1801.65,-260.82C1824.05,-247.54 1855.39,-228.95 1878.01,-215.54"/>
</g>
<!-- node0x564b4d34c8b0 -->
<g id="node31" class="node">
<title>node0x564b4d34c8b0</title>
<ellipse fill="none" stroke="black" cx="1441.77" cy="-116.61" rx="84.29" ry="26.74"/>
<text text-anchor="middle" x="1441.77" y="-120.41" font-family="Times,serif" font-size="14.00">STRING_DATA</text>
<text text-anchor="middle" x="1441.77" y="-105.41" font-family="Times,serif" font-size="14.00">&quot;i is now&quot;</text>
</g>
<!-- node0x564b4d34c950&#45;&#45;node0x564b4d34c8b0 -->
<g id="edge30" class="edge">
<title>node0x564b4d34c950&#45;&#45;node0x564b4d34c8b0</title>
<path fill="none" stroke="black" d="M1601.3,-180.52C1570.25,-168.28 1527.17,-151.29 1493.6,-138.05"/>
</g>
<!-- node0x564b4d34c9c0 -->
<g id="node32" class="node">
<title>node0x564b4d34c9c0</title>
<ellipse fill="none" stroke="black" cx="1650.77" cy="-116.61" rx="106.55" ry="26.74"/>
<text text-anchor="middle" x="1650.77" y="-120.41" font-family="Times,serif" font-size="14.00">IDENTIFIER_DATA</text>
<text text-anchor="middle" x="1650.77" y="-105.41" font-family="Times,serif" font-size="14.00">i</text>
</g>
<!-- node0x564b4d34c950&#45;&#45;node0x564b4d34c9c0 -->
<g id="edge31" class="edge">
<title>node0x564b4d34c950&#45;&#45;node0x564b4d34c9c0</title>
<path fill="none" stroke="black" d="M1643.73,-179.37C1644.92,-168.95 1646.46,-155.43 1647.8,-143.69"/>
</g>
<!-- node0x564b4d347540 -->
<g id="node34" class="node">
<title>node0x564b4d347540</title>
<ellipse fill="none" stroke="black" cx="1898.77" cy="-116.61" rx="106.55" ry="26.74"/>
<text text-anchor="middle" x="1898.77" y="-120.41" font-family="Times,serif" font-size="14.00">IDENTIFIER_DATA</text>
<text text-anchor="middle" x="1898.77" y="-105.41" font-family="Times,serif" font-size="14.00">i</text>
</g>
<!-- node0x564b4d347590&#45;&#45;node0x564b4d347540 -->
<g id="edge33" class="edge">
<title>node0x564b4d347590&#45;&#45;node0x564b4d347540</title>
<path fill="none" stroke="black" d="M1905.04,-179.37C1903.98,-168.95 1902.61,-155.43 1901.42,-143.69"/>
</g>
<!-- node0x564b4d3474b0 -->
<g id="node35" class="node">
<title>node0x564b4d3474b0</title>
<ellipse fill="none" stroke="black" cx="2104.77" cy="-116.61" rx="81.13" ry="26.74"/>
<text text-anchor="middle" x="2104.77" y="-120.41" font-family="Times,serif" font-size="14.00">EXPRESSION</text>
<text text-anchor="middle" x="2104.77" y="-105.41" font-family="Times,serif" font-size="14.00">+</text>
</g>
<!-- node0x564b4d347590&#45;&#45;node0x564b4d3474b0 -->
<g id="edge34" class="edge">
<title>node0x564b4d347590&#45;&#45;node0x564b4d3474b0</title>
<path fill="none" stroke="black" d="M1948.28,-179.95C1979.12,-167.66 2021.36,-150.84 2054.18,-137.76"/>
</g>
<!-- node0x564b4d34cb50 -->
<g id="node36" class="node">
<title>node0x564b4d34cb50</title>
<ellipse fill="none" stroke="black" cx="1995.77" cy="-26.87" rx="106.55" ry="26.74"/>
<text text-anchor="middle" x="1995.77" y="-30.67" font-family="Times,serif" font-size="14.00">IDENTIFIER_DATA</text>
<text text-anchor="middle" x="1995.77" y="-15.67" font-family="Times,serif" font-size="14.00">i</text>
</g>
<!-- node0x564b4d3474b0&#45;&#45;node0x564b4d34cb50 -->
<g id="edge35" class="edge">
<title>node0x564b4d3474b0&#45;&#45;node0x564b4d34cb50</title>
<path fill="none" stroke="black" d="M2074.7,-91.4C2059.83,-79.43 2041.9,-65 2026.89,-52.92"/>
</g>
<!-- node0x564b4d34cbd0 -->
<g id="node37" class="node">
<title>node0x564b4d34cbd0</title>
<ellipse fill="none" stroke="black" cx="2212.77" cy="-26.87" rx="92.76" ry="26.74"/>
<text text-anchor="middle" x="2212.77" y="-30.67" font-family="Times,serif" font-size="14.00">NUMBER_DATA</text>
<text text-anchor="middle" x="2212.77" y="-15.67" font-family="Times,serif" font-size="14.00">1</text>
</g>
<!-- node0x564b4d3474b0&#45;&#45;node0x564b4d34cbd0 -->
<g id="edge36" class="edge">
<title>node0x564b4d3474b0&#45;&#45;node0x564b4d34cbd0</title>
<path fill="none" stroke="black" d="M2134.57,-91.4C2149.43,-79.33 2167.37,-64.75 2182.32,-52.61"/>
</g>
<!-- node0x564b4d34ccc0 -->
<g id="node39" class="node">
<title>node0x564b4d34ccc0</title>
<ellipse fill="none" stroke="black" cx="978.77" cy="-529.83" rx="84.29" ry="26.74"/>
<text text-anchor="middle" x="978.77" y="-533.63" font-family="Times,serif" font-size="14.00">STRING_DATA</text>
<text text-anchor="middle" x="978.77" y="-518.63" font-family="Times,serif" font-size="14.00">&quot;Done!&quot;</text>
</g>
<!-- node0x564b4d34cd60&#45;&#45;node0x564b4d34ccc0 -->
<g id="edge38" class="edge">
<title>node0x564b4d34cd60&#45;&#45;node0x564b4d34ccc0</title>
<path fill="none" stroke="black" d="M966.24,-592.59C968.36,-582.17 971.1,-568.65 973.48,-556.91"/>
</g>
</g>
</svg>
