<?xml version="1.0" encoding="UTF-8" standalone="no"?>
<!DOCTYPE svg PUBLIC "-//W3C//DTD SVG 1.1//EN"
 "http://www.w3.org/Graphics/SVG/1.1/DTD/svg11.dtd">
<!-- Generated by graphviz version 7.1.0 (0)
 -->
<!-- Pages: 1 -->
<svg width="3713pt" height="637pt"
 viewBox="0.00 0.00 3712.55 636.70" xmlns="http://www.w3.org/2000/svg" xmlns:xlink="http://www.w3.org/1999/xlink">
<g id="graph0" class="graph" transform="scale(1 1) rotate(0) translate(4 632.7)">
<polygon fill="white" stroke="none" points="-4,4 -4,-632.7 3708.55,-632.7 3708.55,4 -4,4"/>
<!-- node0x5652956f9550 -->
<g id="node1" class="node">
<title>node0x5652956f9550</title>
<ellipse fill="none" stroke="black" cx="1688.77" cy="-610.7" rx="76.09" ry="18"/>
<text text-anchor="middle" x="1688.77" y="-607" font-family="Times,serif" font-size="14.00">GLOBAL_LIST</text>
</g>
<!-- node0x5652956f93a0 -->
<g id="node2" class="node">
<title>node0x5652956f93a0</title>
<ellipse fill="none" stroke="black" cx="1131.77" cy="-538.7" rx="81.49" ry="18"/>
<text text-anchor="middle" x="1131.77" y="-535" font-family="Times,serif" font-size="14.00">DECLARATION</text>
</g>
<!-- node0x5652956f9550&#45;&#45;node0x5652956f93a0 -->
<g id="edge1" class="edge">
<title>node0x5652956f9550&#45;&#45;node0x5652956f93a0</title>
<path fill="none" stroke="black" d="M1622.69,-601.4C1516.64,-588.07 1309.43,-562.03 1201.26,-548.43"/>
</g>
<!-- node0x5652956f96d0 -->
<g id="node5" class="node">
<title>node0x5652956f96d0</title>
<ellipse fill="none" stroke="black" cx="1580.77" cy="-538.7" rx="117.78" ry="18"/>
<text text-anchor="middle" x="1580.77" y="-535" font-family="Times,serif" font-size="14.00">ARRAY_DECLARATION</text>
</g>
<!-- node0x5652956f9550&#45;&#45;node0x5652956f96d0 -->
<g id="edge4" class="edge">
<title>node0x5652956f9550&#45;&#45;node0x5652956f96d0</title>
<path fill="none" stroke="black" d="M1663.45,-593.29C1646.37,-582.22 1623.89,-567.65 1606.69,-556.5"/>
</g>
<!-- node0x5652956fb150 -->
<g id="node8" class="node">
<title>node0x5652956fb150</title>
<ellipse fill="none" stroke="black" cx="1908.77" cy="-538.7" rx="63.89" ry="18"/>
<text text-anchor="middle" x="1908.77" y="-535" font-family="Times,serif" font-size="14.00">FUNCTION</text>
</g>
<!-- node0x5652956f9550&#45;&#45;node0x5652956fb150 -->
<g id="edge7" class="edge">
<title>node0x5652956f9550&#45;&#45;node0x5652956fb150</title>
<path fill="none" stroke="black" d="M1733.03,-595.62C1772.3,-583.12 1829.24,-565.01 1867.56,-552.81"/>
</g>
<!-- node0x5652956fb800 -->
<g id="node48" class="node">
<title>node0x5652956fb800</title>
<ellipse fill="none" stroke="black" cx="2531.77" cy="-538.7" rx="63.89" ry="18"/>
<text text-anchor="middle" x="2531.77" y="-535" font-family="Times,serif" font-size="14.00">FUNCTION</text>
</g>
<!-- node0x5652956f9550&#45;&#45;node0x5652956fb800 -->
<g id="edge47" class="edge">
<title>node0x5652956f9550&#45;&#45;node0x5652956fb800</title>
<path fill="none" stroke="black" d="M1759.56,-603.82C1921.96,-590.34 2319,-557.37 2471.11,-544.74"/>
</g>
<!-- node0x5652956f9350 -->
<g id="node3" class="node">
<title>node0x5652956f9350</title>
<ellipse fill="none" stroke="black" cx="899.77" cy="-457.83" rx="106.55" ry="26.74"/>
<text text-anchor="middle" x="899.77" y="-461.63" font-family="Times,serif" font-size="14.00">IDENTIFIER_DATA</text>
<text text-anchor="middle" x="899.77" y="-446.63" font-family="Times,serif" font-size="14.00">a</text>
</g>
<!-- node0x5652956f93a0&#45;&#45;node0x5652956f9350 -->
<g id="edge2" class="edge">
<title>node0x5652956f93a0&#45;&#45;node0x5652956f9350</title>
<path fill="none" stroke="black" d="M1088.68,-523.05C1053.04,-510.93 1001.95,-493.57 961.89,-479.95"/>
</g>
<!-- node0x5652956f9410 -->
<g id="node4" class="node">
<title>node0x5652956f9410</title>
<ellipse fill="none" stroke="black" cx="1131.77" cy="-457.83" rx="106.55" ry="26.74"/>
<text text-anchor="middle" x="1131.77" y="-461.63" font-family="Times,serif" font-size="14.00">IDENTIFIER_DATA</text>
<text text-anchor="middle" x="1131.77" y="-446.63" font-family="Times,serif" font-size="14.00">b</text>
</g>
<!-- node0x5652956f93a0&#45;&#45;node0x5652956f9410 -->
<g id="edge3" class="edge">
<title>node0x5652956f93a0&#45;&#45;node0x5652956f9410</title>
<path fill="none" stroke="black" d="M1131.77,-520.59C1131.77,-510.17 1131.77,-496.65 1131.77,-484.91"/>
</g>
<!-- node0x5652956f95c0 -->
<g id="node6" class="node">
<title>node0x5652956f95c0</title>
<ellipse fill="none" stroke="black" cx="1363.77" cy="-457.83" rx="106.55" ry="26.74"/>
<text text-anchor="middle" x="1363.77" y="-461.63" font-family="Times,serif" font-size="14.00">IDENTIFIER_DATA</text>
<text text-anchor="middle" x="1363.77" y="-446.63" font-family="Times,serif" font-size="14.00">arr</text>
</g>
<!-- node0x5652956f96d0&#45;&#45;node0x5652956f95c0 -->
<g id="edge5" class="edge">
<title>node0x5652956f96d0&#45;&#45;node0x5652956f95c0</title>
<path fill="none" stroke="black" d="M1536.6,-521.64C1503.88,-509.75 1458.96,-493.43 1423.11,-480.4"/>
</g>
<!-- node0x5652956f9630 -->
<g id="node7" class="node">
<title>node0x5652956f9630</title>
<ellipse fill="none" stroke="black" cx="1580.77" cy="-457.83" rx="92.76" ry="26.74"/>
<text text-anchor="middle" x="1580.77" y="-461.63" font-family="Times,serif" font-size="14.00">NUMBER_DATA</text>
<text text-anchor="middle" x="1580.77" y="-446.63" font-family="Times,serif" font-size="14.00">10</text>
</g>
<!-- node0x5652956f96d0&#45;&#45;node0x5652956f9630 -->
<g id="edge6" class="edge">
<title>node0x5652956f96d0&#45;&#45;node0x5652956f9630</title>
<path fill="none" stroke="black" d="M1580.77,-520.59C1580.77,-510.17 1580.77,-496.65 1580.77,-484.91"/>
</g>
<!-- node0x5652956f9830 -->
<g id="node9" class="node">
<title>node0x5652956f9830</title>
<ellipse fill="none" stroke="black" cx="1797.77" cy="-457.83" rx="106.55" ry="26.74"/>
<text text-anchor="middle" x="1797.77" y="-461.63" font-family="Times,serif" font-size="14.00">IDENTIFIER_DATA</text>
<text text-anchor="middle" x="1797.77" y="-446.63" font-family="Times,serif" font-size="14.00">main</text>
</g>
<!-- node0x5652956fb150&#45;&#45;node0x5652956f9830 -->
<g id="edge8" class="edge">
<title>node0x5652956fb150&#45;&#45;node0x5652956f9830</title>
<path fill="none" stroke="black" d="M1886.04,-521.55C1870.57,-510.55 1849.79,-495.79 1832.29,-483.35"/>
</g>
<!-- node0x5652956f9880 -->
<g id="node10" class="node">
<title>node0x5652956f9880</title>
<ellipse fill="none" stroke="black" cx="2019.77" cy="-457.83" rx="96.68" ry="18"/>
<text text-anchor="middle" x="2019.77" y="-454.13" font-family="Times,serif" font-size="14.00">PARAMETER_LIST</text>
</g>
<!-- node0x5652956fb150&#45;&#45;node0x5652956f9880 -->
<g id="edge9" class="edge">
<title>node0x5652956fb150&#45;&#45;node0x5652956f9880</title>
<path fill="none" stroke="black" d="M1931.5,-521.55C1950.4,-508.12 1977.21,-489.08 1996.31,-475.5"/>
</g>
<!-- node0x5652956fb0b0 -->
<g id="node11" class="node">
<title>node0x5652956fb0b0</title>
<ellipse fill="none" stroke="black" cx="2178.77" cy="-457.83" rx="44.39" ry="18"/>
<text text-anchor="middle" x="2178.77" y="-454.13" font-family="Times,serif" font-size="14.00">BLOCK</text>
</g>
<!-- node0x5652956fb150&#45;&#45;node0x5652956fb0b0 -->
<g id="edge10" class="edge">
<title>node0x5652956fb150&#45;&#45;node0x5652956fb0b0</title>
<path fill="none" stroke="black" d="M1961.44,-528.14C2005.97,-519.27 2071.07,-504.47 2125.77,-484.7 2134.82,-481.43 2144.37,-477.07 2152.84,-472.87"/>
</g>
<!-- node0x5652956f9c20 -->
<g id="node12" class="node">
<title>node0x5652956f9c20</title>
<ellipse fill="none" stroke="black" cx="1150.77" cy="-368.09" rx="106.68" ry="18"/>
<text text-anchor="middle" x="1150.77" y="-364.39" font-family="Times,serif" font-size="14.00">DECLARATION_LIST</text>
</g>
<!-- node0x5652956fb0b0&#45;&#45;node0x5652956f9c20 -->
<g id="edge11" class="edge">
<title>node0x5652956fb0b0&#45;&#45;node0x5652956f9c20</title>
<path fill="none" stroke="black" d="M2154.21,-442.37C2145.51,-437.92 2135.47,-433.53 2125.77,-430.96 1964.27,-388.22 1473.95,-374.62 1256.53,-370.62"/>
</g>
<!-- node0x5652956fa150 -->
<g id="node21" class="node">
<title>node0x5652956fa150</title>
<ellipse fill="none" stroke="black" cx="2178.77" cy="-368.09" rx="96.68" ry="18"/>
<text text-anchor="middle" x="2178.77" y="-364.39" font-family="Times,serif" font-size="14.00">STATEMENT_LIST</text>
</g>
<!-- node0x5652956fb0b0&#45;&#45;node0x5652956fa150 -->
<g id="edge20" class="edge">
<title>node0x5652956fb0b0&#45;&#45;node0x5652956fa150</title>
<path fill="none" stroke="black" d="M2178.77,-439.5C2178.77,-424.11 2178.77,-401.76 2178.77,-386.39"/>
</g>
<!-- node0x5652956f9940 -->
<g id="node13" class="node">
<title>node0x5652956f9940</title>
<ellipse fill="none" stroke="black" cx="570.77" cy="-287.22" rx="81.49" ry="18"/>
<text text-anchor="middle" x="570.77" y="-283.52" font-family="Times,serif" font-size="14.00">DECLARATION</text>
</g>
<!-- node0x5652956f9c20&#45;&#45;node0x5652956f9940 -->
<g id="edge12" class="edge">
<title>node0x5652956f9c20&#45;&#45;node0x5652956f9940</title>
<path fill="none" stroke="black" d="M1069.52,-356.04C954.47,-340.4 746.2,-312.08 638.83,-297.48"/>
</g>
<!-- node0x5652956f9ce0 -->
<g id="node18" class="node">
<title>node0x5652956f9ce0</title>
<ellipse fill="none" stroke="black" cx="1150.77" cy="-287.22" rx="81.49" ry="18"/>
<text text-anchor="middle" x="1150.77" y="-283.52" font-family="Times,serif" font-size="14.00">DECLARATION</text>
</g>
<!-- node0x5652956f9c20&#45;&#45;node0x5652956f9ce0 -->
<g id="edge17" class="edge">
<title>node0x5652956f9c20&#45;&#45;node0x5652956f9ce0</title>
<path fill="none" stroke="black" d="M1150.77,-349.98C1150.77,-336.84 1150.77,-318.77 1150.77,-305.57"/>
</g>
<!-- node0x5652956f98f0 -->
<g id="node14" class="node">
<title>node0x5652956f98f0</title>
<ellipse fill="none" stroke="black" cx="106.77" cy="-206.35" rx="106.55" ry="26.74"/>
<text text-anchor="middle" x="106.77" y="-210.15" font-family="Times,serif" font-size="14.00">IDENTIFIER_DATA</text>
<text text-anchor="middle" x="106.77" y="-195.15" font-family="Times,serif" font-size="14.00">A</text>
</g>
<!-- node0x5652956f9940&#45;&#45;node0x5652956f98f0 -->
<g id="edge13" class="edge">
<title>node0x5652956f9940&#45;&#45;node0x5652956f98f0</title>
<path fill="none" stroke="black" d="M502.2,-277.19C431.84,-267.59 319.33,-251.32 222.77,-233.22 210.1,-230.84 196.7,-228.09 183.68,-225.28"/>
</g>
<!-- node0x5652956f99b0 -->
<g id="node15" class="node">
<title>node0x5652956f99b0</title>
<ellipse fill="none" stroke="black" cx="338.77" cy="-206.35" rx="106.55" ry="26.74"/>
<text text-anchor="middle" x="338.77" y="-210.15" font-family="Times,serif" font-size="14.00">IDENTIFIER_DATA</text>
<text text-anchor="middle" x="338.77" y="-195.15" font-family="Times,serif" font-size="14.00">B</text>
</g>
<!-- node0x5652956f9940&#45;&#45;node0x5652956f99b0 -->
<g id="edge14" class="edge">
<title>node0x5652956f9940&#45;&#45;node0x5652956f99b0</title>
<path fill="none" stroke="black" d="M527.68,-271.57C492.04,-259.45 440.95,-242.09 400.89,-228.47"/>
</g>
<!-- node0x5652956f9a70 -->
<g id="node16" class="node">
<title>node0x5652956f9a70</title>
<ellipse fill="none" stroke="black" cx="570.77" cy="-206.35" rx="106.55" ry="26.74"/>
<text text-anchor="middle" x="570.77" y="-210.15" font-family="Times,serif" font-size="14.00">IDENTIFIER_DATA</text>
<text text-anchor="middle" x="570.77" y="-195.15" font-family="Times,serif" font-size="14.00">C</text>
</g>
<!-- node0x5652956f9940&#45;&#45;node0x5652956f9a70 -->
<g id="edge15" class="edge">
<title>node0x5652956f9940&#45;&#45;node0x5652956f9a70</title>
<path fill="none" stroke="black" d="M570.77,-269.11C570.77,-258.69 570.77,-245.17 570.77,-233.43"/>
</g>
<!-- node0x5652956f9b30 -->
<g id="node17" class="node">
<title>node0x5652956f9b30</title>
<ellipse fill="none" stroke="black" cx="802.77" cy="-206.35" rx="106.55" ry="26.74"/>
<text text-anchor="middle" x="802.77" y="-210.15" font-family="Times,serif" font-size="14.00">IDENTIFIER_DATA</text>
<text text-anchor="middle" x="802.77" y="-195.15" font-family="Times,serif" font-size="14.00">D</text>
</g>
<!-- node0x5652956f9940&#45;&#45;node0x5652956f9b30 -->
<g id="edge16" class="edge">
<title>node0x5652956f9940&#45;&#45;node0x5652956f9b30</title>
<path fill="none" stroke="black" d="M613.87,-271.57C649.51,-259.45 700.6,-242.09 740.66,-228.47"/>
</g>
<!-- node0x5652956f9c90 -->
<g id="node19" class="node">
<title>node0x5652956f9c90</title>
<ellipse fill="none" stroke="black" cx="1034.77" cy="-206.35" rx="106.55" ry="26.74"/>
<text text-anchor="middle" x="1034.77" y="-210.15" font-family="Times,serif" font-size="14.00">IDENTIFIER_DATA</text>
<text text-anchor="middle" x="1034.77" y="-195.15" font-family="Times,serif" font-size="14.00">X</text>
</g>
<!-- node0x5652956f9ce0&#45;&#45;node0x5652956f9c90 -->
<g id="edge18" class="edge">
<title>node0x5652956f9ce0&#45;&#45;node0x5652956f9c90</title>
<path fill="none" stroke="black" d="M1126.46,-269.69C1110.38,-258.76 1089.02,-244.23 1070.96,-231.95"/>
</g>
<!-- node0x5652956f9d50 -->
<g id="node20" class="node">
<title>node0x5652956f9d50</title>
<ellipse fill="none" stroke="black" cx="1266.77" cy="-206.35" rx="106.55" ry="26.74"/>
<text text-anchor="middle" x="1266.77" y="-210.15" font-family="Times,serif" font-size="14.00">IDENTIFIER_DATA</text>
<text text-anchor="middle" x="1266.77" y="-195.15" font-family="Times,serif" font-size="14.00">Y</text>
</g>
<!-- node0x5652956f9ce0&#45;&#45;node0x5652956f9d50 -->
<g id="edge19" class="edge">
<title>node0x5652956f9ce0&#45;&#45;node0x5652956f9d50</title>
<path fill="none" stroke="black" d="M1175.09,-269.69C1191.17,-258.76 1212.53,-244.23 1230.59,-231.95"/>
</g>
<!-- node0x5652956f9f50 -->
<g id="node22" class="node">
<title>node0x5652956f9f50</title>
<ellipse fill="none" stroke="black" cx="1661.77" cy="-287.22" rx="105.08" ry="18"/>
<text text-anchor="middle" x="1661.77" y="-283.52" font-family="Times,serif" font-size="14.00">PRINT_STATEMENT</text>
</g>
<!-- node0x5652956fa150&#45;&#45;node0x5652956f9f50 -->
<g id="edge21" class="edge">
<title>node0x5652956fa150&#45;&#45;node0x5652956f9f50</title>
<path fill="none" stroke="black" d="M2105.8,-355.96C2008.52,-341.12 1837.15,-314.97 1738.17,-299.87"/>
</g>
<!-- node0x5652956fa530 -->
<g id="node25" class="node">
<title>node0x5652956fa530</title>
<ellipse fill="none" stroke="black" cx="2056.77" cy="-287.22" rx="141.88" ry="18"/>
<text text-anchor="middle" x="2056.77" y="-283.52" font-family="Times,serif" font-size="14.00">ASSIGNMENT_STATEMENT</text>
</g>
<!-- node0x5652956fa150&#45;&#45;node0x5652956fa530 -->
<g id="edge24" class="edge">
<title>node0x5652956fa150&#45;&#45;node0x5652956fa530</title>
<path fill="none" stroke="black" d="M2152.9,-350.36C2132.34,-337.07 2103.69,-318.55 2083.03,-305.19"/>
</g>
<!-- node0x5652956fab10 -->
<g id="node32" class="node">
<title>node0x5652956fab10</title>
<ellipse fill="none" stroke="black" cx="2301.77" cy="-287.22" rx="85.29" ry="18"/>
<text text-anchor="middle" x="2301.77" y="-283.52" font-family="Times,serif" font-size="14.00">IF_STATEMENT</text>
</g>
<!-- node0x5652956fa150&#45;&#45;node0x5652956fab10 -->
<g id="edge31" class="edge">
<title>node0x5652956fa150&#45;&#45;node0x5652956fab10</title>
<path fill="none" stroke="black" d="M2204.86,-350.36C2225.87,-336.89 2255.26,-318.05 2276.15,-304.65"/>
</g>
<!-- node0x5652956fafc0 -->
<g id="node41" class="node">
<title>node0x5652956fafc0</title>
<ellipse fill="none" stroke="black" cx="2776.77" cy="-287.22" rx="141.88" ry="18"/>
<text text-anchor="middle" x="2776.77" y="-283.52" font-family="Times,serif" font-size="14.00">ASSIGNMENT_STATEMENT</text>
</g>
<!-- node0x5652956fa150&#45;&#45;node0x5652956fafc0 -->
<g id="edge40" class="edge">
<title>node0x5652956fa150&#45;&#45;node0x5652956fafc0</title>
<path fill="none" stroke="black" d="M2254.57,-356.66C2289.36,-351.9 2331.15,-346.22 2368.77,-341.22 2474.98,-327.09 2596.8,-311.32 2679.48,-300.69"/>
</g>
<!-- node0x5652956f9eb0 -->
<g id="node23" class="node">
<title>node0x5652956f9eb0</title>
<ellipse fill="none" stroke="black" cx="1475.77" cy="-206.35" rx="84.29" ry="26.74"/>
<text text-anchor="middle" x="1475.77" y="-210.15" font-family="Times,serif" font-size="14.00">STRING_DATA</text>
<text text-anchor="middle" x="1475.77" y="-195.15" font-family="Times,serif" font-size="14.00">&quot;Hello&quot;</text>
</g>
<!-- node0x5652956f9f50&#45;&#45;node0x5652956f9eb0 -->
<g id="edge22" class="edge">
<title>node0x5652956f9f50&#45;&#45;node0x5652956f9eb0</title>
<path fill="none" stroke="black" d="M1623.68,-270.07C1595.2,-257.99 1556.01,-241.37 1525.13,-228.28"/>
</g>
<!-- node0x5652956f9fc0 -->
<g id="node24" class="node">
<title>node0x5652956f9fc0</title>
<ellipse fill="none" stroke="black" cx="1661.77" cy="-206.35" rx="84.29" ry="26.74"/>
<text text-anchor="middle" x="1661.77" y="-210.15" font-family="Times,serif" font-size="14.00">STRING_DATA</text>
<text text-anchor="middle" x="1661.77" y="-195.15" font-family="Times,serif" font-size="14.00">&quot;World&quot;</text>
</g>
<!-- node0x5652956f9f50&#45;&#45;node0x5652956f9fc0 -->
<g id="edge23" class="edge">
<title>node0x5652956f9f50&#45;&#45;node0x5652956f9fc0</title>
<path fill="none" stroke="black" d="M1661.77,-269.11C1661.77,-258.69 1661.77,-245.17 1661.77,-233.43"/>
</g>
<!-- node0x5652956fa1c0 -->
<g id="node26" class="node">
<title>node0x5652956fa1c0</title>
<ellipse fill="none" stroke="black" cx="1870.77" cy="-206.35" rx="106.55" ry="26.74"/>
<text text-anchor="middle" x="1870.77" y="-210.15" font-family="Times,serif" font-size="14.00">IDENTIFIER_DATA</text>
<text text-anchor="middle" x="1870.77" y="-195.15" font-family="Times,serif" font-size="14.00">A</text>
</g>
<!-- node0x5652956fa530&#45;&#45;node0x5652956fa1c0 -->
<g id="edge25" class="edge">
<title>node0x5652956fa530&#45;&#45;node0x5652956fa1c0</title>
<path fill="none" stroke="black" d="M2017.33,-269.49C1990.13,-257.96 1953.68,-242.5 1923.93,-229.89"/>
</g>
<!-- node0x5652956fa4e0 -->
<g id="node27" class="node">
<title>node0x5652956fa4e0</title>
<ellipse fill="none" stroke="black" cx="2076.77" cy="-206.35" rx="81.13" ry="26.74"/>
<text text-anchor="middle" x="2076.77" y="-210.15" font-family="Times,serif" font-size="14.00">EXPRESSION</text>
<text text-anchor="middle" x="2076.77" y="-195.15" font-family="Times,serif" font-size="14.00">+</text>
</g>
<!-- node0x5652956fa530&#45;&#45;node0x5652956fa4e0 -->
<g id="edge26" class="edge">
<title>node0x5652956fa530&#45;&#45;node0x5652956fa4e0</title>
<path fill="none" stroke="black" d="M2061.11,-269.11C2063.76,-258.69 2067.18,-245.17 2070.16,-233.43"/>
</g>
<!-- node0x5652956fa3b0 -->
<g id="node28" class="node">
<title>node0x5652956fa3b0</title>
<ellipse fill="none" stroke="black" cx="1611.77" cy="-116.61" rx="81.13" ry="26.74"/>
<text text-anchor="middle" x="1611.77" y="-120.41" font-family="Times,serif" font-size="14.00">EXPRESSION</text>
<text text-anchor="middle" x="1611.77" y="-105.41" font-family="Times,serif" font-size="14.00">+</text>
</g>
<!-- node0x5652956fa4e0&#45;&#45;node0x5652956fa3b0 -->
<g id="edge27" class="edge">
<title>node0x5652956fa4e0&#45;&#45;node0x5652956fa3b0</title>
<path fill="none" stroke="black" d="M2019,-187.32C2008.36,-184.41 1997.28,-181.64 1986.77,-179.48 1861.72,-153.77 1826.83,-169.19 1701.77,-143.48 1691.26,-141.32 1680.19,-138.55 1669.54,-135.64"/>
</g>
<!-- node0x5652956fa420 -->
<g id="node31" class="node">
<title>node0x5652956fa420</title>
<ellipse fill="none" stroke="black" cx="1817.77" cy="-116.61" rx="106.55" ry="26.74"/>
<text text-anchor="middle" x="1817.77" y="-120.41" font-family="Times,serif" font-size="14.00">IDENTIFIER_DATA</text>
<text text-anchor="middle" x="1817.77" y="-105.41" font-family="Times,serif" font-size="14.00">D</text>
</g>
<!-- node0x5652956fa4e0&#45;&#45;node0x5652956fa420 -->
<g id="edge30" class="edge">
<title>node0x5652956fa4e0&#45;&#45;node0x5652956fa420</title>
<path fill="none" stroke="black" d="M2021.21,-186.53C1979.74,-172.48 1923.06,-153.28 1880.06,-138.71"/>
</g>
<!-- node0x5652956fa230 -->
<g id="node29" class="node">
<title>node0x5652956fa230</title>
<ellipse fill="none" stroke="black" cx="1495.77" cy="-26.87" rx="106.55" ry="26.74"/>
<text text-anchor="middle" x="1495.77" y="-30.67" font-family="Times,serif" font-size="14.00">IDENTIFIER_DATA</text>
<text text-anchor="middle" x="1495.77" y="-15.67" font-family="Times,serif" font-size="14.00">B</text>
</g>
<!-- node0x5652956fa3b0&#45;&#45;node0x5652956fa230 -->
<g id="edge28" class="edge">
<title>node0x5652956fa3b0&#45;&#45;node0x5652956fa230</title>
<path fill="none" stroke="black" d="M1580.08,-91.63C1564.11,-79.56 1544.77,-64.93 1528.65,-52.73"/>
</g>
<!-- node0x5652956fa2f0 -->
<g id="node30" class="node">
<title>node0x5652956fa2f0</title>
<ellipse fill="none" stroke="black" cx="1727.77" cy="-26.87" rx="106.55" ry="26.74"/>
<text text-anchor="middle" x="1727.77" y="-30.67" font-family="Times,serif" font-size="14.00">IDENTIFIER_DATA</text>
<text text-anchor="middle" x="1727.77" y="-15.67" font-family="Times,serif" font-size="14.00">C</text>
</g>
<!-- node0x5652956fa3b0&#45;&#45;node0x5652956fa2f0 -->
<g id="edge29" class="edge">
<title>node0x5652956fa3b0&#45;&#45;node0x5652956fa2f0</title>
<path fill="none" stroke="black" d="M1643.47,-91.63C1659.44,-79.56 1678.77,-64.93 1694.9,-52.73"/>
</g>
<!-- node0x5652956fa7c0 -->
<g id="node33" class="node">
<title>node0x5652956fa7c0</title>
<ellipse fill="none" stroke="black" cx="2281.77" cy="-206.35" rx="65.52" ry="26.74"/>
<text text-anchor="middle" x="2281.77" y="-210.15" font-family="Times,serif" font-size="14.00">RELATION</text>
<text text-anchor="middle" x="2281.77" y="-195.15" font-family="Times,serif" font-size="14.00">&lt;</text>
</g>
<!-- node0x5652956fab10&#45;&#45;node0x5652956fa7c0 -->
<g id="edge32" class="edge">
<title>node0x5652956fab10&#45;&#45;node0x5652956fa7c0</title>
<path fill="none" stroke="black" d="M2297.43,-269.11C2294.79,-258.69 2291.36,-245.17 2288.39,-233.43"/>
</g>
<!-- node0x5652956faa70 -->
<g id="node36" class="node">
<title>node0x5652956faa70</title>
<ellipse fill="none" stroke="black" cx="2510.77" cy="-206.35" rx="141.88" ry="18"/>
<text text-anchor="middle" x="2510.77" y="-202.65" font-family="Times,serif" font-size="14.00">ASSIGNMENT_STATEMENT</text>
</g>
<!-- node0x5652956fab10&#45;&#45;node0x5652956faa70 -->
<g id="edge35" class="edge">
<title>node0x5652956fab10&#45;&#45;node0x5652956faa70</title>
<path fill="none" stroke="black" d="M2342.07,-271.01C2377.89,-257.49 2430.15,-237.77 2466.99,-223.87"/>
</g>
<!-- node0x5652956fa640 -->
<g id="node34" class="node">
<title>node0x5652956fa640</title>
<ellipse fill="none" stroke="black" cx="2049.77" cy="-116.61" rx="106.55" ry="26.74"/>
<text text-anchor="middle" x="2049.77" y="-120.41" font-family="Times,serif" font-size="14.00">IDENTIFIER_DATA</text>
<text text-anchor="middle" x="2049.77" y="-105.41" font-family="Times,serif" font-size="14.00">A</text>
</g>
<!-- node0x5652956fa7c0&#45;&#45;node0x5652956fa640 -->
<g id="edge33" class="edge">
<title>node0x5652956fa7c0&#45;&#45;node0x5652956fa640</title>
<path fill="none" stroke="black" d="M2234.54,-187.49C2197.85,-173.61 2146.77,-154.29 2107.62,-139.49"/>
</g>
<!-- node0x5652956fa700 -->
<g id="node35" class="node">
<title>node0x5652956fa700</title>
<ellipse fill="none" stroke="black" cx="2281.77" cy="-116.61" rx="106.55" ry="26.74"/>
<text text-anchor="middle" x="2281.77" y="-120.41" font-family="Times,serif" font-size="14.00">IDENTIFIER_DATA</text>
<text text-anchor="middle" x="2281.77" y="-105.41" font-family="Times,serif" font-size="14.00">B</text>
</g>
<!-- node0x5652956fa7c0&#45;&#45;node0x5652956fa700 -->
<g id="edge34" class="edge">
<title>node0x5652956fa7c0&#45;&#45;node0x5652956fa700</title>
<path fill="none" stroke="black" d="M2281.77,-179.5C2281.77,-168.18 2281.77,-154.92 2281.77,-143.58"/>
</g>
<!-- node0x5652956fa830 -->
<g id="node37" class="node">
<title>node0x5652956fa830</title>
<ellipse fill="none" stroke="black" cx="2513.77" cy="-116.61" rx="106.55" ry="26.74"/>
<text text-anchor="middle" x="2513.77" y="-120.41" font-family="Times,serif" font-size="14.00">IDENTIFIER_DATA</text>
<text text-anchor="middle" x="2513.77" y="-105.41" font-family="Times,serif" font-size="14.00">A</text>
</g>
<!-- node0x5652956faa70&#45;&#45;node0x5652956fa830 -->
<g id="edge36" class="edge">
<title>node0x5652956faa70&#45;&#45;node0x5652956fa830</title>
<path fill="none" stroke="black" d="M2511.37,-188.02C2511.8,-175.33 2512.4,-157.9 2512.89,-143.56"/>
</g>
<!-- node0x5652956faa20 -->
<g id="node38" class="node">
<title>node0x5652956faa20</title>
<ellipse fill="none" stroke="black" cx="2719.77" cy="-116.61" rx="81.13" ry="26.74"/>
<text text-anchor="middle" x="2719.77" y="-120.41" font-family="Times,serif" font-size="14.00">EXPRESSION</text>
<text text-anchor="middle" x="2719.77" y="-105.41" font-family="Times,serif" font-size="14.00">+</text>
</g>
<!-- node0x5652956faa70&#45;&#45;node0x5652956faa20 -->
<g id="edge37" class="edge">
<title>node0x5652956faa70&#45;&#45;node0x5652956faa20</title>
<path fill="none" stroke="black" d="M2550.58,-188.64C2584.69,-174.32 2633.96,-153.64 2670.54,-138.28"/>
</g>
<!-- node0x5652956fa8a0 -->
<g id="node39" class="node">
<title>node0x5652956fa8a0</title>
<ellipse fill="none" stroke="black" cx="2554.77" cy="-26.87" rx="106.55" ry="26.74"/>
<text text-anchor="middle" x="2554.77" y="-30.67" font-family="Times,serif" font-size="14.00">IDENTIFIER_DATA</text>
<text text-anchor="middle" x="2554.77" y="-15.67" font-family="Times,serif" font-size="14.00">A</text>
</g>
<!-- node0x5652956faa20&#45;&#45;node0x5652956fa8a0 -->
<g id="edge38" class="edge">
<title>node0x5652956faa20&#45;&#45;node0x5652956fa8a0</title>
<path fill="none" stroke="black" d="M2678.14,-93.47C2654.08,-80.68 2623.82,-64.59 2599.29,-51.54"/>
</g>
<!-- node0x5652956fa960 -->
<g id="node40" class="node">
<title>node0x5652956fa960</title>
<ellipse fill="none" stroke="black" cx="2771.77" cy="-26.87" rx="92.76" ry="26.74"/>
<text text-anchor="middle" x="2771.77" y="-30.67" font-family="Times,serif" font-size="14.00">NUMBER_DATA</text>
<text text-anchor="middle" x="2771.77" y="-15.67" font-family="Times,serif" font-size="14.00">1</text>
</g>
<!-- node0x5652956faa20&#45;&#45;node0x5652956fa960 -->
<g id="edge39" class="edge">
<title>node0x5652956faa20&#45;&#45;node0x5652956fa960</title>
<path fill="none" stroke="black" d="M2734.81,-90.23C2741.65,-78.69 2749.73,-65.06 2756.59,-53.5"/>
</g>
<!-- node0x5652956fac20 -->
<g id="node42" class="node">
<title>node0x5652956fac20</title>
<ellipse fill="none" stroke="black" cx="2776.77" cy="-206.35" rx="106.55" ry="26.74"/>
<text text-anchor="middle" x="2776.77" y="-210.15" font-family="Times,serif" font-size="14.00">IDENTIFIER_DATA</text>
<text text-anchor="middle" x="2776.77" y="-195.15" font-family="Times,serif" font-size="14.00">A</text>
</g>
<!-- node0x5652956fafc0&#45;&#45;node0x5652956fac20 -->
<g id="edge41" class="edge">
<title>node0x5652956fafc0&#45;&#45;node0x5652956fac20</title>
<path fill="none" stroke="black" d="M2776.77,-269.11C2776.77,-258.69 2776.77,-245.17 2776.77,-233.43"/>
</g>
<!-- node0x5652956faf70 -->
<g id="node43" class="node">
<title>node0x5652956faf70</title>
<ellipse fill="none" stroke="black" cx="2982.77" cy="-206.35" rx="81.13" ry="26.74"/>
<text text-anchor="middle" x="2982.77" y="-210.15" font-family="Times,serif" font-size="14.00">EXPRESSION</text>
<text text-anchor="middle" x="2982.77" y="-195.15" font-family="Times,serif" font-size="14.00">call</text>
</g>
<!-- node0x5652956fafc0&#45;&#45;node0x5652956faf70 -->
<g id="edge42" class="edge">
<title>node0x5652956fafc0&#45;&#45;node0x5652956faf70</title>
<path fill="none" stroke="black" d="M2819.96,-269.69C2852.28,-257.31 2896.64,-240.33 2930.89,-227.21"/>
</g>
<!-- node0x5652956fac90 -->
<g id="node44" class="node">
<title>node0x5652956fac90</title>
<ellipse fill="none" stroke="black" cx="2925.77" cy="-116.61" rx="106.55" ry="26.74"/>
<text text-anchor="middle" x="2925.77" y="-120.41" font-family="Times,serif" font-size="14.00">IDENTIFIER_DATA</text>
<text text-anchor="middle" x="2925.77" y="-105.41" font-family="Times,serif" font-size="14.00">another</text>
</g>
<!-- node0x5652956faf70&#45;&#45;node0x5652956fac90 -->
<g id="edge43" class="edge">
<title>node0x5652956faf70&#45;&#45;node0x5652956fac90</title>
<path fill="none" stroke="black" d="M2966.29,-179.97C2958.79,-168.43 2949.94,-154.8 2942.42,-143.24"/>
</g>
<!-- node0x5652956fada0 -->
<g id="node45" class="node">
<title>node0x5652956fada0</title>
<ellipse fill="none" stroke="black" cx="3145.77" cy="-116.61" rx="94.78" ry="18"/>
<text text-anchor="middle" x="3145.77" y="-112.91" font-family="Times,serif" font-size="14.00">ARGUMENT_LIST</text>
</g>
<!-- node0x5652956faf70&#45;&#45;node0x5652956fada0 -->
<g id="edge44" class="edge">
<title>node0x5652956faf70&#45;&#45;node0x5652956fada0</title>
<path fill="none" stroke="black" d="M3024.33,-182.98C3052.62,-167.75 3089.46,-147.93 3115.11,-134.12"/>
</g>
<!-- node0x5652956fad00 -->
<g id="node46" class="node">
<title>node0x5652956fad00</title>
<ellipse fill="none" stroke="black" cx="3092.77" cy="-26.87" rx="106.55" ry="26.74"/>
<text text-anchor="middle" x="3092.77" y="-30.67" font-family="Times,serif" font-size="14.00">IDENTIFIER_DATA</text>
<text text-anchor="middle" x="3092.77" y="-15.67" font-family="Times,serif" font-size="14.00">A</text>
</g>
<!-- node0x5652956fada0&#45;&#45;node0x5652956fad00 -->
<g id="edge45" class="edge">
<title>node0x5652956fada0&#45;&#45;node0x5652956fad00</title>
<path fill="none" stroke="black" d="M3135.3,-98.28C3127.58,-85.49 3116.95,-67.89 3108.25,-53.48"/>
</g>
<!-- node0x5652956fae10 -->
<g id="node47" class="node">
<title>node0x5652956fae10</title>
<ellipse fill="none" stroke="black" cx="3324.77" cy="-26.87" rx="106.55" ry="26.74"/>
<text text-anchor="middle" x="3324.77" y="-30.67" font-family="Times,serif" font-size="14.00">IDENTIFIER_DATA</text>
<text text-anchor="middle" x="3324.77" y="-15.67" font-family="Times,serif" font-size="14.00">B</text>
</g>
<!-- node0x5652956fada0&#45;&#45;node0x5652956fae10 -->
<g id="edge46" class="edge">
<title>node0x5652956fada0&#45;&#45;node0x5652956fae10</title>
<path fill="none" stroke="black" d="M3179.02,-99.31C3206.62,-85.78 3246.23,-66.37 3277.19,-51.19"/>
</g>
<!-- node0x5652956fb260 -->
<g id="node49" class="node">
<title>node0x5652956fb260</title>
<ellipse fill="none" stroke="black" cx="2420.77" cy="-457.83" rx="106.55" ry="26.74"/>
<text text-anchor="middle" x="2420.77" y="-461.63" font-family="Times,serif" font-size="14.00">IDENTIFIER_DATA</text>
<text text-anchor="middle" x="2420.77" y="-446.63" font-family="Times,serif" font-size="14.00">another</text>
</g>
<!-- node0x5652956fb800&#45;&#45;node0x5652956fb260 -->
<g id="edge48" class="edge">
<title>node0x5652956fb800&#45;&#45;node0x5652956fb260</title>
<path fill="none" stroke="black" d="M2509.04,-521.55C2493.57,-510.55 2472.79,-495.79 2455.29,-483.35"/>
</g>
<!-- node0x5652956fb320 -->
<g id="node50" class="node">
<title>node0x5652956fb320</title>
<ellipse fill="none" stroke="black" cx="2642.77" cy="-457.83" rx="96.68" ry="18"/>
<text text-anchor="middle" x="2642.77" y="-454.13" font-family="Times,serif" font-size="14.00">PARAMETER_LIST</text>
</g>
<!-- node0x5652956fb800&#45;&#45;node0x5652956fb320 -->
<g id="edge49" class="edge">
<title>node0x5652956fb800&#45;&#45;node0x5652956fb320</title>
<path fill="none" stroke="black" d="M2554.5,-521.55C2573.4,-508.12 2600.21,-489.08 2619.31,-475.5"/>
</g>
<!-- node0x5652956fb760 -->
<g id="node53" class="node">
<title>node0x5652956fb760</title>
<ellipse fill="none" stroke="black" cx="2934.77" cy="-457.83" rx="44.39" ry="18"/>
<text text-anchor="middle" x="2934.77" y="-454.13" font-family="Times,serif" font-size="14.00">BLOCK</text>
</g>
<!-- node0x5652956fb800&#45;&#45;node0x5652956fb760 -->
<g id="edge52" class="edge">
<title>node0x5652956fb800&#45;&#45;node0x5652956fb760</title>
<path fill="none" stroke="black" d="M2583.22,-527.63C2664.81,-511.66 2822.12,-480.88 2895.41,-466.53"/>
</g>
<!-- node0x5652956fb2d0 -->
<g id="node51" class="node">
<title>node0x5652956fb2d0</title>
<ellipse fill="none" stroke="black" cx="2484.77" cy="-368.09" rx="106.55" ry="26.74"/>
<text text-anchor="middle" x="2484.77" y="-371.89" font-family="Times,serif" font-size="14.00">IDENTIFIER_DATA</text>
<text text-anchor="middle" x="2484.77" y="-356.89" font-family="Times,serif" font-size="14.00">x</text>
</g>
<!-- node0x5652956fb320&#45;&#45;node0x5652956fb2d0 -->
<g id="edge50" class="edge">
<title>node0x5652956fb320&#45;&#45;node0x5652956fb2d0</title>
<path fill="none" stroke="black" d="M2613.05,-440.33C2589.01,-426.97 2554.82,-407.99 2527.78,-392.97"/>
</g>
<!-- node0x5652956fb390 -->
<g id="node52" class="node">
<title>node0x5652956fb390</title>
<ellipse fill="none" stroke="black" cx="2716.77" cy="-368.09" rx="106.55" ry="26.74"/>
<text text-anchor="middle" x="2716.77" y="-371.89" font-family="Times,serif" font-size="14.00">IDENTIFIER_DATA</text>
<text text-anchor="middle" x="2716.77" y="-356.89" font-family="Times,serif" font-size="14.00">y</text>
</g>
<!-- node0x5652956fb320&#45;&#45;node0x5652956fb390 -->
<g id="edge51" class="edge">
<title>node0x5652956fb320&#45;&#45;node0x5652956fb390</title>
<path fill="none" stroke="black" d="M2657.04,-439.91C2667.88,-427.07 2682.96,-409.18 2695.26,-394.6"/>
</g>
<!-- node0x5652956fb710 -->
<g id="node54" class="node">
<title>node0x5652956fb710</title>
<ellipse fill="none" stroke="black" cx="3068.77" cy="-368.09" rx="96.68" ry="18"/>
<text text-anchor="middle" x="3068.77" y="-364.39" font-family="Times,serif" font-size="14.00">STATEMENT_LIST</text>
</g>
<!-- node0x5652956fb760&#45;&#45;node0x5652956fb710 -->
<g id="edge53" class="edge">
<title>node0x5652956fb760&#45;&#45;node0x5652956fb710</title>
<path fill="none" stroke="black" d="M2957.5,-441.95C2981.25,-426.4 3018.42,-402.06 3043.18,-385.85"/>
</g>
<!-- node0x5652956fb670 -->
<g id="node55" class="node">
<title>node0x5652956fb670</title>
<ellipse fill="none" stroke="black" cx="3207.77" cy="-287.22" rx="116.98" ry="18"/>
<text text-anchor="middle" x="3207.77" y="-283.52" font-family="Times,serif" font-size="14.00">RETURN_STATEMENT</text>
</g>
<!-- node0x5652956fb710&#45;&#45;node0x5652956fb670 -->
<g id="edge54" class="edge">
<title>node0x5652956fb710&#45;&#45;node0x5652956fb670</title>
<path fill="none" stroke="black" d="M3097.91,-350.56C3121.48,-337.19 3154.51,-318.44 3178.19,-305"/>
</g>
<!-- node0x5652956fb620 -->
<g id="node56" class="node">
<title>node0x5652956fb620</title>
<ellipse fill="none" stroke="black" cx="3365.77" cy="-206.35" rx="81.13" ry="26.74"/>
<text text-anchor="middle" x="3365.77" y="-210.15" font-family="Times,serif" font-size="14.00">EXPRESSION</text>
<text text-anchor="middle" x="3365.77" y="-195.15" font-family="Times,serif" font-size="14.00">+</text>
</g>
<!-- node0x5652956fb670&#45;&#45;node0x5652956fb620 -->
<g id="edge55" class="edge">
<title>node0x5652956fb670&#45;&#45;node0x5652956fb620</title>
<path fill="none" stroke="black" d="M3241.28,-269.49C3264.74,-257.78 3296.32,-242.02 3321.81,-229.3"/>
</g>
<!-- node0x5652956fb4a0 -->
<g id="node57" class="node">
<title>node0x5652956fb4a0</title>
<ellipse fill="none" stroke="black" cx="3365.77" cy="-116.61" rx="106.55" ry="26.74"/>
<text text-anchor="middle" x="3365.77" y="-120.41" font-family="Times,serif" font-size="14.00">IDENTIFIER_DATA</text>
<text text-anchor="middle" x="3365.77" y="-105.41" font-family="Times,serif" font-size="14.00">x</text>
</g>
<!-- node0x5652956fb620&#45;&#45;node0x5652956fb4a0 -->
<g id="edge56" class="edge">
<title>node0x5652956fb620&#45;&#45;node0x5652956fb4a0</title>
<path fill="none" stroke="black" d="M3365.77,-179.5C3365.77,-168.18 3365.77,-154.92 3365.77,-143.58"/>
</g>
<!-- node0x5652956fb560 -->
<g id="node58" class="node">
<title>node0x5652956fb560</title>
<ellipse fill="none" stroke="black" cx="3597.77" cy="-116.61" rx="106.55" ry="26.74"/>
<text text-anchor="middle" x="3597.77" y="-120.41" font-family="Times,serif" font-size="14.00">IDENTIFIER_DATA</text>
<text text-anchor="middle" x="3597.77" y="-105.41" font-family="Times,serif" font-size="14.00">y</text>
</g>
<!-- node0x5652956fb620&#45;&#45;node0x5652956fb560 -->
<g id="edge57" class="edge">
<title>node0x5652956fb620&#45;&#45;node0x5652956fb560</title>
<path fill="none" stroke="black" d="M3418.13,-185.55C3454.35,-171.85 3502.55,-153.62 3539.91,-139.49"/>
</g>
</g>
</svg>
