<?xml version="1.0" encoding="UTF-8" standalone="no"?>
<!DOCTYPE svg PUBLIC "-//W3C//DTD SVG 1.1//EN"
 "http://www.w3.org/Graphics/SVG/1.1/DTD/svg11.dtd">
<!-- Generated by graphviz version 7.1.0 (0)
 -->
<!-- Pages: 1 -->
<svg width="1485pt" height="726pt"
 viewBox="0.00 0.00 1484.55 726.44" xmlns="http://www.w3.org/2000/svg" xmlns:xlink="http://www.w3.org/1999/xlink">
<g id="graph0" class="graph" transform="scale(1 1) rotate(0) translate(4 722.44)">
<polygon fill="white" stroke="none" points="-4,4 -4,-722.44 1480.55,-722.44 1480.55,4 -4,4"/>
<!-- node0x560ba80c57b0 -->
<g id="node1" class="node">
<title>node0x560ba80c57b0</title>
<ellipse fill="none" stroke="black" cx="431.77" cy="-700.44" rx="76.09" ry="18"/>
<text text-anchor="middle" x="431.77" y="-696.74" font-family="Times,serif" font-size="14.00">GLOBAL_LIST</text>
</g>
<!-- node0x560ba80c56c0 -->
<g id="node2" class="node">
<title>node0x560ba80c56c0</title>
<ellipse fill="none" stroke="black" cx="323.77" cy="-628.44" rx="117.78" ry="18"/>
<text text-anchor="middle" x="323.77" y="-624.74" font-family="Times,serif" font-size="14.00">ARRAY_DECLARATION</text>
</g>
<!-- node0x560ba80c57b0&#45;&#45;node0x560ba80c56c0 -->
<g id="edge1" class="edge">
<title>node0x560ba80c57b0&#45;&#45;node0x560ba80c56c0</title>
<path fill="none" stroke="black" d="M406.45,-683.03C389.37,-671.96 366.89,-657.39 349.69,-646.24"/>
</g>
<!-- node0x560ba80c63b0 -->
<g id="node5" class="node">
<title>node0x560ba80c63b0</title>
<ellipse fill="none" stroke="black" cx="651.77" cy="-628.44" rx="63.89" ry="18"/>
<text text-anchor="middle" x="651.77" y="-624.74" font-family="Times,serif" font-size="14.00">FUNCTION</text>
</g>
<!-- node0x560ba80c57b0&#45;&#45;node0x560ba80c63b0 -->
<g id="edge4" class="edge">
<title>node0x560ba80c57b0&#45;&#45;node0x560ba80c63b0</title>
<path fill="none" stroke="black" d="M476.03,-685.36C515.3,-672.86 572.24,-654.75 610.56,-642.55"/>
</g>
<!-- node0x560ba80c5350 -->
<g id="node3" class="node">
<title>node0x560ba80c5350</title>
<ellipse fill="none" stroke="black" cx="106.77" cy="-547.57" rx="106.55" ry="26.74"/>
<text text-anchor="middle" x="106.77" y="-551.37" font-family="Times,serif" font-size="14.00">IDENTIFIER_DATA</text>
<text text-anchor="middle" x="106.77" y="-536.37" font-family="Times,serif" font-size="14.00">array</text>
</g>
<!-- node0x560ba80c56c0&#45;&#45;node0x560ba80c5350 -->
<g id="edge2" class="edge">
<title>node0x560ba80c56c0&#45;&#45;node0x560ba80c5350</title>
<path fill="none" stroke="black" d="M279.6,-611.39C246.88,-599.49 201.96,-583.17 166.11,-570.14"/>
</g>
<!-- node0x560ba80c55b0 -->
<g id="node4" class="node">
<title>node0x560ba80c55b0</title>
<ellipse fill="none" stroke="black" cx="323.77" cy="-547.57" rx="92.76" ry="26.74"/>
<text text-anchor="middle" x="323.77" y="-551.37" font-family="Times,serif" font-size="14.00">NUMBER_DATA</text>
<text text-anchor="middle" x="323.77" y="-536.37" font-family="Times,serif" font-size="14.00">102</text>
</g>
<!-- node0x560ba80c56c0&#45;&#45;node0x560ba80c55b0 -->
<g id="edge3" class="edge">
<title>node0x560ba80c56c0&#45;&#45;node0x560ba80c55b0</title>
<path fill="none" stroke="black" d="M323.77,-610.33C323.77,-599.91 323.77,-586.39 323.77,-574.65"/>
</g>
<!-- node0x560ba80c5820 -->
<g id="node6" class="node">
<title>node0x560ba80c5820</title>
<ellipse fill="none" stroke="black" cx="540.77" cy="-547.57" rx="106.55" ry="26.74"/>
<text text-anchor="middle" x="540.77" y="-551.37" font-family="Times,serif" font-size="14.00">IDENTIFIER_DATA</text>
<text text-anchor="middle" x="540.77" y="-536.37" font-family="Times,serif" font-size="14.00">main</text>
</g>
<!-- node0x560ba80c63b0&#45;&#45;node0x560ba80c5820 -->
<g id="edge5" class="edge">
<title>node0x560ba80c63b0&#45;&#45;node0x560ba80c5820</title>
<path fill="none" stroke="black" d="M629.04,-611.29C613.57,-600.29 592.79,-585.53 575.29,-573.09"/>
</g>
<!-- node0x560ba80c58e0 -->
<g id="node7" class="node">
<title>node0x560ba80c58e0</title>
<ellipse fill="none" stroke="black" cx="762.77" cy="-547.57" rx="96.68" ry="18"/>
<text text-anchor="middle" x="762.77" y="-543.87" font-family="Times,serif" font-size="14.00">PARAMETER_LIST</text>
</g>
<!-- node0x560ba80c63b0&#45;&#45;node0x560ba80c58e0 -->
<g id="edge6" class="edge">
<title>node0x560ba80c63b0&#45;&#45;node0x560ba80c58e0</title>
<path fill="none" stroke="black" d="M674.5,-611.29C693.4,-597.86 720.21,-578.82 739.31,-565.24"/>
</g>
<!-- node0x560ba80c6310 -->
<g id="node10" class="node">
<title>node0x560ba80c6310</title>
<ellipse fill="none" stroke="black" cx="953.77" cy="-547.57" rx="44.39" ry="18"/>
<text text-anchor="middle" x="953.77" y="-543.87" font-family="Times,serif" font-size="14.00">BLOCK</text>
</g>
<!-- node0x560ba80c63b0&#45;&#45;node0x560ba80c6310 -->
<g id="edge9" class="edge">
<title>node0x560ba80c63b0&#45;&#45;node0x560ba80c6310</title>
<path fill="none" stroke="black" d="M700.24,-616.42C744.35,-606.2 811.17,-590.23 868.77,-574.44 885.58,-569.83 904.12,-564.25 919.57,-559.46"/>
</g>
<!-- node0x560ba80c5890 -->
<g id="node8" class="node">
<title>node0x560ba80c5890</title>
<ellipse fill="none" stroke="black" cx="530.77" cy="-457.83" rx="106.55" ry="26.74"/>
<text text-anchor="middle" x="530.77" y="-461.63" font-family="Times,serif" font-size="14.00">IDENTIFIER_DATA</text>
<text text-anchor="middle" x="530.77" y="-446.63" font-family="Times,serif" font-size="14.00">x</text>
</g>
<!-- node0x560ba80c58e0&#45;&#45;node0x560ba80c5890 -->
<g id="edge7" class="edge">
<title>node0x560ba80c58e0&#45;&#45;node0x560ba80c5890</title>
<path fill="none" stroke="black" d="M721.3,-530.88C684.28,-516.89 629.71,-496.25 588.45,-480.64"/>
</g>
<!-- node0x560ba80c5950 -->
<g id="node9" class="node">
<title>node0x560ba80c5950</title>
<ellipse fill="none" stroke="black" cx="762.77" cy="-457.83" rx="106.55" ry="26.74"/>
<text text-anchor="middle" x="762.77" y="-461.63" font-family="Times,serif" font-size="14.00">IDENTIFIER_DATA</text>
<text text-anchor="middle" x="762.77" y="-446.63" font-family="Times,serif" font-size="14.00">y</text>
</g>
<!-- node0x560ba80c58e0&#45;&#45;node0x560ba80c5950 -->
<g id="edge8" class="edge">
<title>node0x560ba80c58e0&#45;&#45;node0x560ba80c5950</title>
<path fill="none" stroke="black" d="M762.77,-529.24C762.77,-516.55 762.77,-499.12 762.77,-484.78"/>
</g>
<!-- node0x560ba80c5d20 -->
<g id="node11" class="node">
<title>node0x560ba80c5d20</title>
<ellipse fill="none" stroke="black" cx="984.77" cy="-457.83" rx="96.68" ry="18"/>
<text text-anchor="middle" x="984.77" y="-454.13" font-family="Times,serif" font-size="14.00">STATEMENT_LIST</text>
</g>
<!-- node0x560ba80c6310&#45;&#45;node0x560ba80c5d20 -->
<g id="edge10" class="edge">
<title>node0x560ba80c6310&#45;&#45;node0x560ba80c5d20</title>
<path fill="none" stroke="black" d="M959.75,-529.65C965.2,-514.22 973.23,-491.51 978.71,-476"/>
</g>
<!-- node0x560ba80c5c80 -->
<g id="node12" class="node">
<title>node0x560ba80c5c80</title>
<ellipse fill="none" stroke="black" cx="851.77" cy="-376.96" rx="141.88" ry="18"/>
<text text-anchor="middle" x="851.77" y="-373.26" font-family="Times,serif" font-size="14.00">ASSIGNMENT_STATEMENT</text>
</g>
<!-- node0x560ba80c5d20&#45;&#45;node0x560ba80c5c80 -->
<g id="edge11" class="edge">
<title>node0x560ba80c5d20&#45;&#45;node0x560ba80c5c80</title>
<path fill="none" stroke="black" d="M956.89,-440.3C934.5,-427.02 903.16,-408.43 880.54,-395.02"/>
</g>
<!-- node0x560ba80c61d0 -->
<g id="node17" class="node">
<title>node0x560ba80c61d0</title>
<ellipse fill="none" stroke="black" cx="1116.77" cy="-376.96" rx="105.08" ry="18"/>
<text text-anchor="middle" x="1116.77" y="-373.26" font-family="Times,serif" font-size="14.00">PRINT_STATEMENT</text>
</g>
<!-- node0x560ba80c5d20&#45;&#45;node0x560ba80c61d0 -->
<g id="edge16" class="edge">
<title>node0x560ba80c5d20&#45;&#45;node0x560ba80c61d0</title>
<path fill="none" stroke="black" d="M1012.44,-440.3C1034.82,-426.93 1066.2,-408.18 1088.68,-394.74"/>
</g>
<!-- node0x560ba80c5b70 -->
<g id="node13" class="node">
<title>node0x560ba80c5b70</title>
<ellipse fill="none" stroke="black" cx="672.77" cy="-296.09" rx="97.48" ry="18"/>
<text text-anchor="middle" x="672.77" y="-292.39" font-family="Times,serif" font-size="14.00">ARRAY_INDEXING</text>
</g>
<!-- node0x560ba80c5c80&#45;&#45;node0x560ba80c5b70 -->
<g id="edge12" class="edge">
<title>node0x560ba80c5c80&#45;&#45;node0x560ba80c5b70</title>
<path fill="none" stroke="black" d="M813.81,-359.23C782.92,-345.62 739.61,-326.54 709.15,-313.12"/>
</g>
<!-- node0x560ba80c5be0 -->
<g id="node16" class="node">
<title>node0x560ba80c5be0</title>
<ellipse fill="none" stroke="black" cx="880.77" cy="-296.09" rx="92.76" ry="26.74"/>
<text text-anchor="middle" x="880.77" y="-299.89" font-family="Times,serif" font-size="14.00">NUMBER_DATA</text>
<text text-anchor="middle" x="880.77" y="-284.89" font-family="Times,serif" font-size="14.00">20</text>
</g>
<!-- node0x560ba80c5c80&#45;&#45;node0x560ba80c5be0 -->
<g id="edge15" class="edge">
<title>node0x560ba80c5c80&#45;&#45;node0x560ba80c5be0</title>
<path fill="none" stroke="black" d="M858.07,-358.85C861.9,-348.43 866.87,-334.91 871.18,-323.17"/>
</g>
<!-- node0x560ba80c5a60 -->
<g id="node14" class="node">
<title>node0x560ba80c5a60</title>
<ellipse fill="none" stroke="black" cx="519.77" cy="-206.35" rx="106.55" ry="26.74"/>
<text text-anchor="middle" x="519.77" y="-210.15" font-family="Times,serif" font-size="14.00">IDENTIFIER_DATA</text>
<text text-anchor="middle" x="519.77" y="-195.15" font-family="Times,serif" font-size="14.00">array</text>
</g>
<!-- node0x560ba80c5b70&#45;&#45;node0x560ba80c5a60 -->
<g id="edge13" class="edge">
<title>node0x560ba80c5b70&#45;&#45;node0x560ba80c5a60</title>
<path fill="none" stroke="black" d="M643.99,-278.59C620.8,-265.28 587.85,-246.39 561.71,-231.4"/>
</g>
<!-- node0x560ba80c5ad0 -->
<g id="node15" class="node">
<title>node0x560ba80c5ad0</title>
<ellipse fill="none" stroke="black" cx="736.77" cy="-206.35" rx="92.76" ry="26.74"/>
<text text-anchor="middle" x="736.77" y="-210.15" font-family="Times,serif" font-size="14.00">NUMBER_DATA</text>
<text text-anchor="middle" x="736.77" y="-195.15" font-family="Times,serif" font-size="14.00">2</text>
</g>
<!-- node0x560ba80c5b70&#45;&#45;node0x560ba80c5ad0 -->
<g id="edge14" class="edge">
<title>node0x560ba80c5b70&#45;&#45;node0x560ba80c5ad0</title>
<path fill="none" stroke="black" d="M685.42,-277.76C694.74,-264.97 707.58,-247.37 718.09,-232.96"/>
</g>
<!-- node0x560ba80c60e0 -->
<g id="node18" class="node">
<title>node0x560ba80c60e0</title>
<ellipse fill="none" stroke="black" cx="1116.77" cy="-296.09" rx="97.48" ry="18"/>
<text text-anchor="middle" x="1116.77" y="-292.39" font-family="Times,serif" font-size="14.00">ARRAY_INDEXING</text>
</g>
<!-- node0x560ba80c61d0&#45;&#45;node0x560ba80c60e0 -->
<g id="edge17" class="edge">
<title>node0x560ba80c61d0&#45;&#45;node0x560ba80c60e0</title>
<path fill="none" stroke="black" d="M1116.77,-358.85C1116.77,-345.71 1116.77,-327.64 1116.77,-314.44"/>
</g>
<!-- node0x560ba80c5d90 -->
<g id="node19" class="node">
<title>node0x560ba80c5d90</title>
<ellipse fill="none" stroke="black" cx="1052.77" cy="-206.35" rx="106.55" ry="26.74"/>
<text text-anchor="middle" x="1052.77" y="-210.15" font-family="Times,serif" font-size="14.00">IDENTIFIER_DATA</text>
<text text-anchor="middle" x="1052.77" y="-195.15" font-family="Times,serif" font-size="14.00">array</text>
</g>
<!-- node0x560ba80c60e0&#45;&#45;node0x560ba80c5d90 -->
<g id="edge18" class="edge">
<title>node0x560ba80c60e0&#45;&#45;node0x560ba80c5d90</title>
<path fill="none" stroke="black" d="M1104.13,-277.76C1094.8,-264.97 1081.96,-247.37 1071.46,-232.96"/>
</g>
<!-- node0x560ba80c6090 -->
<g id="node20" class="node">
<title>node0x560ba80c6090</title>
<ellipse fill="none" stroke="black" cx="1258.77" cy="-206.35" rx="81.13" ry="26.74"/>
<text text-anchor="middle" x="1258.77" y="-210.15" font-family="Times,serif" font-size="14.00">EXPRESSION</text>
<text text-anchor="middle" x="1258.77" y="-195.15" font-family="Times,serif" font-size="14.00">+</text>
</g>
<!-- node0x560ba80c60e0&#45;&#45;node0x560ba80c6090 -->
<g id="edge19" class="edge">
<title>node0x560ba80c60e0&#45;&#45;node0x560ba80c6090</title>
<path fill="none" stroke="black" d="M1143.82,-278.38C1165.78,-264.81 1197.01,-245.51 1221.37,-230.46"/>
</g>
<!-- node0x560ba80c5f10 -->
<g id="node21" class="node">
<title>node0x560ba80c5f10</title>
<ellipse fill="none" stroke="black" cx="1147.77" cy="-116.61" rx="97.48" ry="18"/>
<text text-anchor="middle" x="1147.77" y="-112.91" font-family="Times,serif" font-size="14.00">ARRAY_INDEXING</text>
</g>
<!-- node0x560ba80c6090&#45;&#45;node0x560ba80c5f10 -->
<g id="edge20" class="edge">
<title>node0x560ba80c6090&#45;&#45;node0x560ba80c5f10</title>
<path fill="none" stroke="black" d="M1228.15,-181.14C1209.41,-166.33 1185.9,-147.75 1169.16,-134.52"/>
</g>
<!-- node0x560ba80c5fd0 -->
<g id="node24" class="node">
<title>node0x560ba80c5fd0</title>
<ellipse fill="none" stroke="black" cx="1369.77" cy="-116.61" rx="106.55" ry="26.74"/>
<text text-anchor="middle" x="1369.77" y="-120.41" font-family="Times,serif" font-size="14.00">IDENTIFIER_DATA</text>
<text text-anchor="middle" x="1369.77" y="-105.41" font-family="Times,serif" font-size="14.00">y</text>
</g>
<!-- node0x560ba80c6090&#45;&#45;node0x560ba80c5fd0 -->
<g id="edge23" class="edge">
<title>node0x560ba80c6090&#45;&#45;node0x560ba80c5fd0</title>
<path fill="none" stroke="black" d="M1289.4,-181.14C1304.67,-169.07 1323.11,-154.49 1338.48,-142.35"/>
</g>
<!-- node0x560ba80c5e00 -->
<g id="node22" class="node">
<title>node0x560ba80c5e00</title>
<ellipse fill="none" stroke="black" cx="1031.77" cy="-26.87" rx="106.55" ry="26.74"/>
<text text-anchor="middle" x="1031.77" y="-30.67" font-family="Times,serif" font-size="14.00">IDENTIFIER_DATA</text>
<text text-anchor="middle" x="1031.77" y="-15.67" font-family="Times,serif" font-size="14.00">array</text>
</g>
<!-- node0x560ba80c5f10&#45;&#45;node0x560ba80c5e00 -->
<g id="edge21" class="edge">
<title>node0x560ba80c5f10&#45;&#45;node0x560ba80c5e00</title>
<path fill="none" stroke="black" d="M1125.41,-98.69C1108.16,-85.65 1084.04,-67.41 1064.61,-52.7"/>
</g>
<!-- node0x560ba80c5e70 -->
<g id="node23" class="node">
<title>node0x560ba80c5e70</title>
<ellipse fill="none" stroke="black" cx="1263.77" cy="-26.87" rx="106.55" ry="26.74"/>
<text text-anchor="middle" x="1263.77" y="-30.67" font-family="Times,serif" font-size="14.00">IDENTIFIER_DATA</text>
<text text-anchor="middle" x="1263.77" y="-15.67" font-family="Times,serif" font-size="14.00">x</text>
</g>
<!-- node0x560ba80c5f10&#45;&#45;node0x560ba80c5e70 -->
<g id="edge22" class="edge">
<title>node0x560ba80c5f10&#45;&#45;node0x560ba80c5e70</title>
<path fill="none" stroke="black" d="M1170.14,-98.69C1187.39,-85.65 1211.5,-67.41 1230.94,-52.7"/>
</g>
</g>
</svg>
