<?xml version="1.0" encoding="UTF-8" standalone="no"?>
<!DOCTYPE svg PUBLIC "-//W3C//DTD SVG 1.1//EN"
 "http://www.w3.org/Graphics/SVG/1.1/DTD/svg11.dtd">
<!-- Generated by graphviz version 7.1.0 (0)
 -->
<!-- Pages: 1 -->
<svg width="890pt" height="295pt"
 viewBox="0.00 0.00 890.40 295.48" xmlns="http://www.w3.org/2000/svg" xmlns:xlink="http://www.w3.org/1999/xlink">
<g id="graph0" class="graph" transform="scale(1 1) rotate(0) translate(4 291.48)">
<polygon fill="white" stroke="none" points="-4,4 -4,-291.48 886.4,-291.48 886.4,4 -4,4"/>
<!-- node0x559206c853e0 -->
<g id="node1" class="node">
<title>node0x559206c853e0</title>
<ellipse fill="none" stroke="black" cx="328.77" cy="-269.48" rx="76.09" ry="18"/>
<text text-anchor="middle" x="328.77" y="-265.78" font-family="Times,serif" font-size="14.00">GLOBAL_LIST</text>
</g>
<!-- node0x559206c85340 -->
<g id="node2" class="node">
<title>node0x559206c85340</title>
<ellipse fill="none" stroke="black" cx="328.77" cy="-197.48" rx="63.89" ry="18"/>
<text text-anchor="middle" x="328.77" y="-193.78" font-family="Times,serif" font-size="14.00">FUNCTION</text>
</g>
<!-- node0x559206c853e0&#45;&#45;node0x559206c85340 -->
<g id="edge1" class="edge">
<title>node0x559206c853e0&#45;&#45;node0x559206c85340</title>
<path fill="none" stroke="black" d="M328.77,-251.18C328.77,-240.33 328.77,-226.4 328.77,-215.58"/>
</g>
<!-- node0x559206c84350 -->
<g id="node3" class="node">
<title>node0x559206c84350</title>
<ellipse fill="none" stroke="black" cx="106.77" cy="-116.61" rx="106.55" ry="26.74"/>
<text text-anchor="middle" x="106.77" y="-120.41" font-family="Times,serif" font-size="14.00">IDENTIFIER_DATA</text>
<text text-anchor="middle" x="106.77" y="-105.41" font-family="Times,serif" font-size="14.00">main</text>
</g>
<!-- node0x559206c85340&#45;&#45;node0x559206c84350 -->
<g id="edge2" class="edge">
<title>node0x559206c85340&#45;&#45;node0x559206c84350</title>
<path fill="none" stroke="black" d="M290.1,-182.74C256.19,-170.69 206.32,-152.98 167.15,-139.06"/>
</g>
<!-- node0x559206c84410 -->
<g id="node4" class="node">
<title>node0x559206c84410</title>
<ellipse fill="none" stroke="black" cx="328.77" cy="-116.61" rx="96.68" ry="18"/>
<text text-anchor="middle" x="328.77" y="-112.91" font-family="Times,serif" font-size="14.00">PARAMETER_LIST</text>
</g>
<!-- node0x559206c85340&#45;&#45;node0x559206c84410 -->
<g id="edge3" class="edge">
<title>node0x559206c85340&#45;&#45;node0x559206c84410</title>
<path fill="none" stroke="black" d="M328.77,-179.37C328.77,-166.23 328.77,-148.16 328.77,-134.96"/>
</g>
<!-- node0x559206c852a0 -->
<g id="node6" class="node">
<title>node0x559206c852a0</title>
<ellipse fill="none" stroke="black" cx="585.77" cy="-116.61" rx="141.88" ry="18"/>
<text text-anchor="middle" x="585.77" y="-112.91" font-family="Times,serif" font-size="14.00">ASSIGNMENT_STATEMENT</text>
</g>
<!-- node0x559206c85340&#45;&#45;node0x559206c852a0 -->
<g id="edge5" class="edge">
<title>node0x559206c85340&#45;&#45;node0x559206c852a0</title>
<path fill="none" stroke="black" d="M370.92,-183.54C415.35,-169.91 485.42,-148.41 533.37,-133.69"/>
</g>
<!-- node0x559206c843c0 -->
<g id="node5" class="node">
<title>node0x559206c843c0</title>
<ellipse fill="none" stroke="black" cx="328.77" cy="-26.87" rx="106.55" ry="26.74"/>
<text text-anchor="middle" x="328.77" y="-30.67" font-family="Times,serif" font-size="14.00">IDENTIFIER_DATA</text>
<text text-anchor="middle" x="328.77" y="-15.67" font-family="Times,serif" font-size="14.00">a</text>
</g>
<!-- node0x559206c84410&#45;&#45;node0x559206c843c0 -->
<g id="edge4" class="edge">
<title>node0x559206c84410&#45;&#45;node0x559206c843c0</title>
<path fill="none" stroke="black" d="M328.77,-98.28C328.77,-85.59 328.77,-68.16 328.77,-53.82"/>
</g>
<!-- node0x559206c844d0 -->
<g id="node7" class="node">
<title>node0x559206c844d0</title>
<ellipse fill="none" stroke="black" cx="572.77" cy="-26.87" rx="106.55" ry="26.74"/>
<text text-anchor="middle" x="572.77" y="-30.67" font-family="Times,serif" font-size="14.00">IDENTIFIER_DATA</text>
<text text-anchor="middle" x="572.77" y="-15.67" font-family="Times,serif" font-size="14.00">a</text>
</g>
<!-- node0x559206c852a0&#45;&#45;node0x559206c844d0 -->
<g id="edge6" class="edge">
<title>node0x559206c852a0&#45;&#45;node0x559206c844d0</title>
<path fill="none" stroke="black" d="M583.2,-98.28C581.33,-85.59 578.74,-68.16 576.62,-53.82"/>
</g>
<!-- node0x559206c84a50 -->
<g id="node8" class="node">
<title>node0x559206c84a50</title>
<ellipse fill="none" stroke="black" cx="789.77" cy="-26.87" rx="92.76" ry="26.74"/>
<text text-anchor="middle" x="789.77" y="-30.67" font-family="Times,serif" font-size="14.00">NUMBER_DATA</text>
<text text-anchor="middle" x="789.77" y="-15.67" font-family="Times,serif" font-size="14.00">1</text>
</g>
<!-- node0x559206c852a0&#45;&#45;node0x559206c84a50 -->
<g id="edge7" class="edge">
<title>node0x559206c852a0&#45;&#45;node0x559206c84a50</title>
<path fill="none" stroke="black" d="M624.62,-98.9C657.11,-84.93 703.68,-64.9 739.09,-49.67"/>
</g>
</g>
</svg>
